<svg width="20" height="20" viewBox="0 0 20 20" fill="none" xmlns="http://www.w3.org/2000/svg">
<path d="M3.33301 3.33333H8.33301V8.33333H3.33301V3.33333ZM11.6663 3.33333H16.6663V8.33333H11.6663V3.33333ZM3.33301 11.6667H8.33301V16.6667H3.33301V11.6667ZM11.6663 14.1667C11.6663 14.8297 11.9297 15.4656 12.3986 15.9344C12.8674 16.4033 13.5033 16.6667 14.1663 16.6667C14.8294 16.6667 15.4653 16.4033 15.9341 15.9344C16.4029 15.4656 16.6663 14.8297 16.6663 14.1667C16.6663 13.5036 16.4029 12.8677 15.9341 12.3989C15.4653 11.9301 14.8294 11.6667 14.1663 11.6667C13.5033 11.6667 12.8674 11.9301 12.3986 12.3989C11.9297 12.8677 11.6663 13.5036 11.6663 14.1667Z" stroke="#535763" stroke-width="2" stroke-linecap="round" stroke-linejoin="round"/>
</svg>
