<svg width="33" height="32" viewBox="0 0 33 32" fill="none" xmlns="http://www.w3.org/2000/svg">
<path d="M8.50033 5.33341C8.50033 6.04066 8.21937 6.71894 7.71928 7.21903C7.21918 7.71913 6.5409 8.00008 5.83366 8.00008C5.12641 8.00008 4.44814 7.71913 3.94804 7.21903C3.44794 6.71894 3.16699 6.04066 3.16699 5.33341C3.16699 4.62617 3.44794 3.94789 3.94804 3.4478C4.44814 2.9477 5.12641 2.66675 5.83366 2.66675C6.5409 2.66675 7.21918 2.9477 7.71928 3.4478C8.21937 3.94789 8.50033 4.62617 8.50033 5.33341ZM29.8337 5.33341C29.8337 6.04066 29.5527 6.71894 29.0526 7.21903C28.5525 7.71913 27.8742 8.00008 27.167 8.00008C26.4597 8.00008 25.7815 7.71913 25.2814 7.21903C24.7813 6.71894 24.5003 6.04066 24.5003 5.33341C24.5003 4.62617 24.7813 3.94789 25.2814 3.4478C25.7815 2.9477 26.4597 2.66675 27.167 2.66675C27.8742 2.66675 28.5525 2.9477 29.0526 3.4478C29.5527 3.94789 29.8337 4.62617 29.8337 5.33341ZM29.8337 26.6667C29.8337 27.374 29.5527 28.0523 29.0526 28.5524C28.5525 29.0525 27.8742 29.3334 27.167 29.3334C26.4597 29.3334 25.7815 29.0525 25.2814 28.5524C24.7813 28.0523 24.5003 27.374 24.5003 26.6667C24.5003 25.9595 24.7813 25.2812 25.2814 24.7811C25.7815 24.281 26.4597 24.0001 27.167 24.0001C27.8742 24.0001 28.5525 24.281 29.0526 24.7811C29.5527 25.2812 29.8337 25.9595 29.8337 26.6667ZM8.50033 26.6667C8.50033 27.374 8.21937 28.0523 7.71928 28.5524C7.21918 29.0525 6.5409 29.3334 5.83366 29.3334C5.12641 29.3334 4.44814 29.0525 3.94804 28.5524C3.44794 28.0523 3.16699 27.374 3.16699 26.6667C3.16699 25.9595 3.44794 25.2812 3.94804 24.7811C4.44814 24.281 5.12641 24.0001 5.83366 24.0001C6.5409 24.0001 7.21918 24.281 7.71928 24.7811C8.21937 25.2812 8.50033 25.9595 8.50033 26.6667ZM22.5003 12.0001C22.5003 11.3787 22.5003 11.0681 22.399 10.8227C22.2634 10.4967 22.004 10.2378 21.6777 10.1027C21.4323 10.0001 21.1217 10.0001 20.5003 10.0001H12.5003C11.879 10.0001 11.5683 10.0001 11.323 10.1014C10.9969 10.237 10.738 10.4964 10.603 10.8227C10.5003 11.0681 10.5003 11.3787 10.5003 12.0001C10.5003 12.6214 10.5003 12.9321 10.6017 13.1774C10.7373 13.5035 10.9967 13.7624 11.323 13.8974C11.5683 14.0001 11.879 14.0001 12.5003 14.0001H20.5003C21.1217 14.0001 21.4323 14.0001 21.6777 13.8987C22.0037 13.7631 22.2626 13.5037 22.3977 13.1774C22.5003 12.9321 22.5003 12.6214 22.5003 12.0001ZM22.5003 20.0001C22.5003 19.3787 22.5003 19.0681 22.399 18.8227C22.2634 18.4967 22.004 18.2378 21.6777 18.1027C21.4323 18.0001 21.1217 18.0001 20.5003 18.0001H12.5003C11.879 18.0001 11.5683 18.0001 11.323 18.1014C10.9969 18.237 10.738 18.4964 10.603 18.8227C10.5003 19.0681 10.5003 19.3787 10.5003 20.0001C10.5003 20.6214 10.5003 20.9321 10.6017 21.1774C10.7373 21.5035 10.9967 21.7624 11.323 21.8974C11.5683 22.0001 11.879 22.0001 12.5003 22.0001H20.5003C21.1217 22.0001 21.4323 22.0001 21.6777 21.8987C22.0037 21.7631 22.2626 21.5037 22.3977 21.1774C22.5003 20.9321 22.5003 20.6214 22.5003 20.0001Z" stroke="#E9233A" stroke-width="1.5" stroke-linecap="round" stroke-linejoin="round"/>
</svg>
