<svg width="35" height="35" viewBox="0 0 35 35" fill="none" xmlns="http://www.w3.org/2000/svg">
<path d="M5.46875 28.4375C5.46875 29.5978 5.92969 30.7106 6.75016 31.5311C7.57063 32.3515 8.68343 32.8125 9.84375 32.8125H16.1328C16.2053 32.8125 16.2749 32.7837 16.3262 32.7324C16.3774 32.6811 16.4062 32.6116 16.4062 32.539V19.9609C16.4062 19.8884 16.3774 19.8188 16.3262 19.7676C16.2749 19.7163 16.2053 19.6875 16.1328 19.6875H6.01562C5.87058 19.6875 5.73149 19.7451 5.62893 19.8477C5.52637 19.9502 5.46875 20.0893 5.46875 20.2344V28.4375ZM16.4062 17.2265V9.84373H18.5938V17.2265C18.5938 17.2991 18.6226 17.3686 18.6738 17.4199C18.7251 17.4712 18.7947 17.5 18.8672 17.5H28.4375C28.8101 17.5 29.18 17.4364 29.5312 17.312C30.1704 17.0851 30.7238 16.666 31.1154 16.1122C31.507 15.5584 31.7178 14.897 31.7188 14.2187V13.125C31.7188 12.2547 31.373 11.4201 30.7577 10.8048C30.1423 10.1894 29.3077 9.84373 28.4375 9.84373H25.6662C25.6424 9.84335 25.6191 9.83676 25.5986 9.8246C25.5781 9.81245 25.5612 9.79516 25.5494 9.77443C25.5377 9.75371 25.5316 9.73029 25.5317 9.70647C25.5318 9.68265 25.5381 9.65928 25.55 9.63865C26.1829 8.57012 26.3885 7.30182 26.1255 6.08809C25.8625 4.87435 25.1504 3.8049 24.1319 3.09418C23.1135 2.38345 21.864 2.084 20.6341 2.25587C19.4041 2.42774 18.2846 3.05821 17.5 4.02088C16.7154 3.05821 15.5959 2.42774 14.3659 2.25587C13.136 2.084 11.8865 2.38345 10.8681 3.09418C9.84965 3.8049 9.13754 4.87435 8.87455 6.08809C8.61155 7.30182 8.81711 8.57012 9.45 9.63865C9.46191 9.65928 9.46823 9.68265 9.46833 9.70647C9.46842 9.73029 9.4623 9.75371 9.45056 9.77443C9.43881 9.79516 9.42186 9.81245 9.40138 9.8246C9.3809 9.83676 9.3576 9.84335 9.33379 9.84373H6.5625C5.69226 9.84373 4.85766 10.1894 4.24231 10.8048C3.62695 11.4201 3.28125 12.2547 3.28125 13.125V14.2187C3.28222 14.897 3.49296 15.5584 3.88459 16.1122C4.27622 16.666 4.82956 17.0851 5.46875 17.312C5.81998 17.4364 6.18988 17.5 6.5625 17.5H16.1328C16.2053 17.5 16.2749 17.4712 16.3262 17.4199C16.3774 17.3686 16.4062 17.2991 16.4062 17.2265ZM18.5938 7.10936C18.5938 6.56855 18.7541 6.03989 19.0546 5.59022C19.355 5.14055 19.7821 4.79008 20.2817 4.58312C20.7814 4.37617 21.3312 4.32202 21.8616 4.42752C22.392 4.53303 22.8792 4.79345 23.2616 5.17586C23.644 5.55827 23.9045 6.04549 24.01 6.57591C24.1155 7.10632 24.0613 7.65611 23.8544 8.15576C23.6474 8.6554 23.2969 9.08245 22.8473 9.38291C22.3976 9.68336 21.8689 9.84373 21.3281 9.84373H18.5938V7.10936ZM13.4764 4.38182C13.851 4.35496 14.2271 4.40557 14.5813 4.53048C14.9355 4.65539 15.2601 4.85192 15.535 5.10783C15.8099 5.36373 16.0291 5.67352 16.179 6.01788C16.3289 6.36224 16.4063 6.73379 16.4062 7.10936V9.84373H13.6719C12.9648 9.84192 12.286 9.56629 11.7778 9.07471C11.2696 8.58312 10.9716 7.91379 10.9463 7.20719C10.921 6.50059 11.1704 5.81167 11.6421 5.285C12.1138 4.75833 12.7713 4.43487 13.4764 4.3825V4.38182ZM18.8672 32.8125H25.1562C26.3166 32.8125 27.4294 32.3515 28.2498 31.5311C29.0703 30.7106 29.5312 29.5978 29.5312 28.4375V20.2344C29.5312 20.0893 29.4736 19.9502 29.3711 19.8477C29.2685 19.7451 29.1294 19.6875 28.9844 19.6875H18.8672C18.7947 19.6875 18.7251 19.7163 18.6738 19.7676C18.6226 19.8188 18.5938 19.8884 18.5938 19.9609V32.539C18.5938 32.6116 18.6226 32.6811 18.6738 32.7324C18.7251 32.7837 18.7947 32.8125 18.8672 32.8125Z" fill="#E9233A"/>
</svg>
