<svg width="37" height="32" viewBox="0 0 37 32" fill="none" xmlns="http://www.w3.org/2000/svg">
<path d="M33.9167 14.5334V5.46675C33.9167 3.46675 32.93 2.66675 30.4788 2.66675H24.2504C21.7992 2.66675 20.8125 3.46675 20.8125 5.46675V14.5334C20.8125 16.5334 21.7992 17.3334 24.2504 17.3334H30.4788C32.93 17.3334 33.9167 16.5334 33.9167 14.5334Z" fill="#B6B6B6"/>
<path d="M33.9167 26.5333V24.1333C33.9167 22.1333 32.93 21.3333 30.4788 21.3333H24.2504C21.7992 21.3333 20.8125 22.1333 20.8125 24.1333V26.5333C20.8125 28.5333 21.7992 29.3333 24.2504 29.3333H30.4788C32.93 29.3333 33.9167 28.5333 33.9167 26.5333Z" fill="#B6B6B6"/>
<path d="M16.1882 17.4667V26.5334C16.1882 28.5334 15.2015 29.3334 12.7502 29.3334H6.5219C4.07065 29.3334 3.08398 28.5334 3.08398 26.5334V17.4667C3.08398 15.4667 4.07065 14.6667 6.5219 14.6667H12.7502C15.2015 14.6667 16.1882 15.4667 16.1882 17.4667Z" fill="#B6B6B6"/>
<path d="M16.1882 5.46675V7.86675C16.1882 9.86675 15.2015 10.6667 12.7502 10.6667H6.5219C4.07065 10.6667 3.08398 9.86675 3.08398 7.86675V5.46675C3.08398 3.46675 4.07065 2.66675 6.5219 2.66675H12.7502C15.2015 2.66675 16.1882 3.46675 16.1882 5.46675Z" fill="#B6B6B6"/>
</svg>
