<svg width="35" height="35" viewBox="0 0 35 35" fill="none" xmlns="http://www.w3.org/2000/svg">
<path d="M4.37565 17.5C2.77148 17.5 1.45898 16.1875 1.45898 14.5833V7.29167C1.45898 5.6875 2.77148 4.375 4.37565 4.375H16.0423C17.6465 4.375 18.959 5.6875 18.959 7.29167V14.5833C18.959 16.1875 17.6465 17.5 16.0423 17.5H13.1257V21.875L8.75065 17.5H4.37565ZM30.6256 26.25C32.2298 26.25 33.5423 24.9375 33.5423 23.3333V16.0417C33.5423 14.4375 32.2298 13.125 30.6256 13.125H21.8757V14.5833C21.8757 17.7917 19.2507 20.4167 16.0423 20.4167V23.3333C16.0423 24.9375 17.3548 26.25 18.959 26.25H21.8757V30.625L26.2507 26.25H30.6256Z" fill="#B6B6B6"/>
</svg>
