<svg width="33" height="32" viewBox="0 0 33 32" fill="none" xmlns="http://www.w3.org/2000/svg">
<path d="M8.49935 5.33341C8.49935 6.04066 8.2184 6.71894 7.7183 7.21903C7.2182 7.71913 6.53993 8.00008 5.83268 8.00008C5.12544 8.00008 4.44716 7.71913 3.94706 7.21903C3.44697 6.71894 3.16602 6.04066 3.16602 5.33341C3.16602 4.62617 3.44697 3.94789 3.94706 3.4478C4.44716 2.9477 5.12544 2.66675 5.83268 2.66675C6.53993 2.66675 7.2182 2.9477 7.7183 3.4478C8.2184 3.94789 8.49935 4.62617 8.49935 5.33341ZM29.8327 5.33341C29.8327 6.04066 29.5517 6.71894 29.0516 7.21903C28.5515 7.71913 27.8733 8.00008 27.166 8.00008C26.4588 8.00008 25.7805 7.71913 25.2804 7.21903C24.7803 6.71894 24.4993 6.04066 24.4993 5.33341C24.4993 4.62617 24.7803 3.94789 25.2804 3.4478C25.7805 2.9477 26.4588 2.66675 27.166 2.66675C27.8733 2.66675 28.5515 2.9477 29.0516 3.4478C29.5517 3.94789 29.8327 4.62617 29.8327 5.33341ZM29.8327 26.6667C29.8327 27.374 29.5517 28.0523 29.0516 28.5524C28.5515 29.0525 27.8733 29.3334 27.166 29.3334C26.4588 29.3334 25.7805 29.0525 25.2804 28.5524C24.7803 28.0523 24.4993 27.374 24.4993 26.6667C24.4993 25.9595 24.7803 25.2812 25.2804 24.7811C25.7805 24.281 26.4588 24.0001 27.166 24.0001C27.8733 24.0001 28.5515 24.281 29.0516 24.7811C29.5517 25.2812 29.8327 25.9595 29.8327 26.6667ZM8.49935 26.6667C8.49935 27.374 8.2184 28.0523 7.7183 28.5524C7.2182 29.0525 6.53993 29.3334 5.83268 29.3334C5.12544 29.3334 4.44716 29.0525 3.94706 28.5524C3.44697 28.0523 3.16602 27.374 3.16602 26.6667C3.16602 25.9595 3.44697 25.2812 3.94706 24.7811C4.44716 24.281 5.12544 24.0001 5.83268 24.0001C6.53993 24.0001 7.2182 24.281 7.7183 24.7811C8.2184 25.2812 8.49935 25.9595 8.49935 26.6667ZM22.4993 12.0001C22.4993 11.3787 22.4993 11.0681 22.398 10.8227C22.2624 10.4967 22.003 10.2378 21.6767 10.1027C21.4313 10.0001 21.1207 10.0001 20.4993 10.0001H12.4993C11.878 10.0001 11.5673 10.0001 11.322 10.1014C10.996 10.237 10.737 10.4964 10.602 10.8227C10.4993 11.0681 10.4993 11.3787 10.4993 12.0001C10.4993 12.6214 10.4993 12.9321 10.6007 13.1774C10.7363 13.5035 10.9957 13.7624 11.322 13.8974C11.5673 14.0001 11.878 14.0001 12.4993 14.0001H20.4993C21.1207 14.0001 21.4313 14.0001 21.6767 13.8987C22.0027 13.7631 22.2617 13.5037 22.3967 13.1774C22.4993 12.9321 22.4993 12.6214 22.4993 12.0001ZM22.4993 20.0001C22.4993 19.3787 22.4993 19.0681 22.398 18.8227C22.2624 18.4967 22.003 18.2378 21.6767 18.1027C21.4313 18.0001 21.1207 18.0001 20.4993 18.0001H12.4993C11.878 18.0001 11.5673 18.0001 11.322 18.1014C10.996 18.237 10.737 18.4964 10.602 18.8227C10.4993 19.0681 10.4993 19.3787 10.4993 20.0001C10.4993 20.6214 10.4993 20.9321 10.6007 21.1774C10.7363 21.5035 10.9957 21.7624 11.322 21.8974C11.5673 22.0001 11.878 22.0001 12.4993 22.0001H20.4993C21.1207 22.0001 21.4313 22.0001 21.6767 21.8987C22.0027 21.7631 22.2617 21.5037 22.3967 21.1774C22.4993 20.9321 22.4993 20.6214 22.4993 20.0001Z" stroke="#B6B6B6" stroke-width="1.5" stroke-linecap="round" stroke-linejoin="round"/>
</svg>
