<svg width="33" height="32" viewBox="0 0 33 32" fill="none" xmlns="http://www.w3.org/2000/svg">
<path d="M16.4993 15.3334C15.6153 15.3334 14.7674 14.9822 14.1423 14.3571C13.5172 13.732 13.166 12.8841 13.166 12.0001C13.166 11.116 13.5172 10.2682 14.1423 9.64306C14.7674 9.01794 15.6153 8.66675 16.4993 8.66675C17.3834 8.66675 18.2312 9.01794 18.8564 9.64306C19.4815 10.2682 19.8327 11.116 19.8327 12.0001C19.8327 12.4378 19.7465 12.8713 19.5789 13.2757C19.4114 13.6801 19.1659 14.0476 18.8564 14.3571C18.5468 14.6666 18.1794 14.9122 17.775 15.0797C17.3705 15.2472 16.9371 15.3334 16.4993 15.3334ZM16.4993 2.66675C14.024 2.66675 11.65 3.65008 9.89969 5.40042C8.14935 7.15076 7.16602 9.52473 7.16602 12.0001C7.16602 19.0001 16.4993 29.3334 16.4993 29.3334C16.4993 29.3334 25.8327 19.0001 25.8327 12.0001C25.8327 9.52473 24.8493 7.15076 23.099 5.40042C21.3487 3.65008 18.9747 2.66675 16.4993 2.66675Z" fill="#E9233A"/>
</svg>
