<svg width="35" height="35" viewBox="0 0 35 35" fill="none" xmlns="http://www.w3.org/2000/svg">
<path d="M4.37467 17.5C2.77051 17.5 1.45801 16.1875 1.45801 14.5833V7.29167C1.45801 5.6875 2.77051 4.375 4.37467 4.375H16.0413C17.6455 4.375 18.958 5.6875 18.958 7.29167V14.5833C18.958 16.1875 17.6455 17.5 16.0413 17.5H13.1247V21.875L8.74967 17.5H4.37467ZM30.6247 26.25C32.2288 26.25 33.5413 24.9375 33.5413 23.3333V16.0417C33.5413 14.4375 32.2288 13.125 30.6247 13.125H21.8747V14.5833C21.8747 17.7917 19.2497 20.4167 16.0413 20.4167V23.3333C16.0413 24.9375 17.3538 26.25 18.958 26.25H21.8747V30.625L26.2497 26.25H30.6247Z" fill="#B6B6B6"/>
</svg>
