<svg width="22" height="22" viewBox="0 0 22 22" fill="none" xmlns="http://www.w3.org/2000/svg">
<path d="M5 3C5 3.53043 4.78929 4.03914 4.41421 4.41421C4.03914 4.78929 3.53043 5 3 5C2.46957 5 1.96086 4.78929 1.58579 4.41421C1.21071 4.03914 1 3.53043 1 3C1 2.46957 1.21071 1.96086 1.58579 1.58579C1.96086 1.21071 2.46957 1 3 1C3.53043 1 4.03914 1.21071 4.41421 1.58579C4.78929 1.96086 5 2.46957 5 3ZM21 3C21 3.53043 20.7893 4.03914 20.4142 4.41421C20.0391 4.78929 19.5304 5 19 5C18.4696 5 17.9609 4.78929 17.5858 4.41421C17.2107 4.03914 17 3.53043 17 3C17 2.46957 17.2107 1.96086 17.5858 1.58579C17.9609 1.21071 18.4696 1 19 1C19.5304 1 20.0391 1.21071 20.4142 1.58579C20.7893 1.96086 21 2.46957 21 3ZM21 19C21 19.5304 20.7893 20.0391 20.4142 20.4142C20.0391 20.7893 19.5304 21 19 21C18.4696 21 17.9609 20.7893 17.5858 20.4142C17.2107 20.0391 17 19.5304 17 19C17 18.4696 17.2107 17.9609 17.5858 17.5858C17.9609 17.2107 18.4696 17 19 17C19.5304 17 20.0391 17.2107 20.4142 17.5858C20.7893 17.9609 21 18.4696 21 19ZM5 19C5 19.5304 4.78929 20.0391 4.41421 20.4142C4.03914 20.7893 3.53043 21 3 21C2.46957 21 1.96086 20.7893 1.58579 20.4142C1.21071 20.0391 1 19.5304 1 19C1 18.4696 1.21071 17.9609 1.58579 17.5858C1.96086 17.2107 2.46957 17 3 17C3.53043 17 4.03914 17.2107 4.41421 17.5858C4.78929 17.9609 5 18.4696 5 19ZM15.5 8C15.5 7.534 15.5 7.301 15.424 7.117C15.3223 6.87246 15.1277 6.67826 14.883 6.577C14.699 6.5 14.466 6.5 14 6.5H8C7.534 6.5 7.301 6.5 7.117 6.576C6.87246 6.67771 6.67826 6.87227 6.577 7.117C6.5 7.301 6.5 7.534 6.5 8C6.5 8.466 6.5 8.699 6.576 8.883C6.67771 9.12754 6.87227 9.32174 7.117 9.423C7.301 9.5 7.534 9.5 8 9.5H14C14.466 9.5 14.699 9.5 14.883 9.424C15.1275 9.32229 15.3217 9.12773 15.423 8.883C15.5 8.699 15.5 8.466 15.5 8ZM15.5 14C15.5 13.534 15.5 13.301 15.424 13.117C15.3223 12.8725 15.1277 12.6783 14.883 12.577C14.699 12.5 14.466 12.5 14 12.5H8C7.534 12.5 7.301 12.5 7.117 12.576C6.87246 12.6777 6.67826 12.8723 6.577 13.117C6.5 13.301 6.5 13.534 6.5 14C6.5 14.466 6.5 14.699 6.576 14.883C6.67771 15.1275 6.87227 15.3217 7.117 15.423C7.301 15.5 7.534 15.5 8 15.5H14C14.466 15.5 14.699 15.5 14.883 15.424C15.1275 15.3223 15.3217 15.1277 15.423 14.883C15.5 14.699 15.5 14.466 15.5 14Z" stroke="#535763" stroke-width="1.5" stroke-linecap="round" stroke-linejoin="round"/>
</svg>
