<svg width="126" height="124" viewBox="0 0 126 124" fill="none" xmlns="http://www.w3.org/2000/svg">
<path d="M61.6339 0.376634C59.51 1.54847 60.4133 4.91748 62.8302 4.91748C64.0752 4.91748 65.2715 3.72124 65.2715 2.50058C65.2715 0.669592 63.2452 -0.526653 61.6339 0.376634Z" fill="white"/>
<path d="M31.8987 7.23688C30.8978 7.65191 30.2142 8.97022 30.4584 9.94674C30.6537 10.728 47.3034 27.6219 48.4753 28.2566C49.4518 28.7693 50.2574 28.6716 51.0875 27.9636C52.0884 27.1336 52.3081 25.9374 51.649 24.8876C50.8678 23.6425 34.4865 7.40777 33.7053 7.13923C32.8509 6.82186 32.8509 6.82186 31.8987 7.23688Z" fill="white"/>
<path d="M91.7598 7.26059C90.9298 7.67562 75.3786 23.0559 74.28 24.5451C73.3279 25.839 73.3523 26.7179 74.4021 27.7676C75.3054 28.6709 76.111 28.8174 77.1852 28.2559C78.357 27.6212 95.0068 10.7273 95.2021 9.94604C95.4462 8.9451 94.7627 7.6512 93.7129 7.21177C92.6875 6.79674 92.6631 6.79674 91.7598 7.26059Z" fill="white"/>
<path d="M61.9511 10.0195C61.6582 10.1416 61.1943 10.5566 60.9013 10.9228C60.4131 11.5575 60.3887 11.7772 60.3887 19.1256C60.3887 27.304 60.4375 27.719 61.7314 28.3049C62.537 28.6711 63.1229 28.6711 63.9286 28.3049C65.2225 27.719 65.2713 27.304 65.2713 19.1012V11.5087L64.6122 10.7763C63.8798 9.99508 62.7812 9.67771 61.9511 10.0195Z" fill="white"/>
<path d="M24.8432 24.4724C23.9888 24.9119 0.723055 53.8903 0.478924 54.8424C0.332445 55.4039 0.332445 55.8922 0.52775 56.2828C0.674229 56.6001 3.60381 59.2856 7.04606 62.2396L13.2958 67.6105L18.6667 74.8368C21.5963 78.8161 24.0132 82.1363 24.0132 82.2339C24.0132 82.3072 23.6958 82.8931 23.2808 83.5034C21.1325 86.8724 21.5231 91.1447 24.2573 94.1232C25.3803 95.3438 27.8461 96.7109 28.9447 96.7109C29.6282 96.7109 29.6282 96.7109 29.6282 98.2978C29.6282 99.2987 29.8235 100.373 30.1409 101.276C31.1663 104.059 34.6817 106.72 37.294 106.72C38.1972 106.72 38.417 107.013 38.417 108.21C38.417 108.6 38.6123 109.381 38.832 109.943C40.1747 113.385 43.1043 115.485 46.8151 115.631L48.3043 115.68L48.4752 116.583C48.9879 119 50.8677 121.344 53.2602 122.516C54.4808 123.126 54.9202 123.199 56.971 123.199C59.0461 123.199 59.4367 123.126 60.6085 122.516C61.3165 122.125 62.4395 121.319 63.0742 120.733C63.709 120.148 64.2949 119.659 64.3681 119.659C64.4658 119.659 65.0273 120.026 65.6376 120.489C69.1043 123.15 73.8649 122.906 76.9653 119.903C78.186 118.707 79.1381 116.852 79.4799 115.021L79.724 113.629L80.9691 113.483C84.5578 113.043 87.585 110.041 88.2686 106.232L88.5127 104.841L89.7578 104.694C93.371 104.255 96.3738 101.276 97.0574 97.4189C97.2771 96.0762 97.3503 95.9786 97.9606 95.9786C100.133 95.9786 103.063 94.2696 104.406 92.2433C106.139 89.6311 106.432 86.5795 105.187 83.8452L104.601 82.5757L108.556 74.2997L112.535 66.0236L118.712 60.7015C122.105 57.772 124.986 55.1109 125.108 54.7936C125.23 54.4762 125.328 53.9391 125.328 53.6217C125.328 52.9382 104.21 25.3025 103.161 24.6189C102.746 24.3504 102.233 24.2283 101.72 24.3015C101.281 24.3504 97.9851 26.3034 94.0301 28.818L87.0724 33.2367H78.1127H69.1287L62.3663 35.1898C58.6311 36.264 55.3597 37.1429 55.1156 37.1429C54.8714 37.1184 51.5756 36.2884 47.816 35.2386L40.9803 33.3588L33.9494 28.8912C26.9428 24.4236 25.9174 23.9353 24.8432 24.4724ZM31.1418 32.895C33.6076 34.4574 35.7559 35.8734 35.9268 36.0443C36.1954 36.2884 34.3888 38.6321 25.6489 49.2518C19.8386 56.356 14.9315 62.1663 14.785 62.1663C14.2724 62.1663 6.21601 55.1109 6.38691 54.818C6.82634 54.11 26.3569 30.063 26.5033 30.063C26.601 30.063 28.7005 31.3325 31.1418 32.895ZM110.436 41.6837C115.343 48.0799 119.347 53.3776 119.347 53.4753C119.347 53.6706 111.144 60.7992 110.924 60.8236C110.851 60.8236 106.456 55.3307 101.183 48.5926C93.1268 38.3391 91.6376 36.3128 91.9062 36.0443C92.3212 35.6536 101.208 30.063 101.403 30.063C101.476 30.0874 105.529 35.3119 110.436 41.6837ZM97.155 51.449C102.917 58.7729 107.604 64.8274 107.579 64.925C107.506 65.218 101.134 78.5231 101.012 78.6208C100.939 78.694 94.616 72.4687 86.9259 64.803C73.2545 51.156 72.9372 50.863 71.863 50.7166C71.2526 50.6433 67.9081 50.3992 64.417 50.1795C58.7531 49.7889 57.9963 49.7889 57.3616 50.1307C56.8489 50.3992 55.7747 52.0593 53.016 56.9419C51.0141 60.4818 49.1832 63.5823 48.9634 63.8508C47.3766 65.6086 44.3005 65.2668 43.0555 63.2161C42.4695 62.2396 42.4207 60.6039 42.9578 59.5297C43.1775 59.0903 45.3259 55.2574 47.7428 50.9851L52.1372 43.2461L53.4066 42.8799C54.0902 42.6846 57.9963 41.5372 62.0977 40.341L69.5437 38.1682L78.1127 38.1438L86.6818 38.1194L97.155 51.449ZM43.6658 39.1936C44.8864 39.5109 46.3268 39.9015 46.9127 40.0724C47.4742 40.2189 47.9381 40.4142 47.9381 40.5363C47.9381 40.6339 45.9606 44.2227 43.5193 48.5194C38.0508 58.1382 38.0019 58.2846 37.7334 59.9447C37.1475 63.6555 38.9785 67.2687 42.3719 69.0508C43.5437 69.6612 43.8855 69.7344 46.2292 69.7344C48.5728 69.7344 48.9146 69.6612 50.0864 69.0508C52.2104 67.9278 53.0404 66.8537 56.5803 60.6039L59.9494 54.6959L60.8282 54.818C61.3409 54.8912 63.7822 55.0865 66.2968 55.233L70.8376 55.526L85.7297 70.4424C98.986 83.6987 100.67 85.4809 100.915 86.3842C101.72 89.4847 98.5466 92.1213 95.7146 90.7053C95.2752 90.4856 91.1494 86.4818 86.5109 81.7945L78.0883 73.2499L77.0386 73.2743C75.3785 73.2743 74.2555 74.7391 74.6461 76.3504C74.7681 76.7654 78.0639 80.2565 83.3127 85.5785C92.5409 94.8555 92.6142 94.9532 92.1259 97.0283C91.6132 99.2987 89.001 100.519 86.9259 99.494C86.4865 99.2987 83.5569 96.4912 80.4076 93.2687L74.6705 87.4095L73.5475 87.4339C71.985 87.4339 71.1306 88.264 71.1306 89.8264V90.925L77.0874 96.9307C82.0433 101.911 83.093 103.107 83.3127 103.913C84.0451 106.72 81.7015 109.113 78.7719 108.551C78.0151 108.405 77.2095 107.746 74.1822 104.743C70.7644 101.349 70.4714 101.105 69.5926 101.105C67.8104 101.105 66.6386 102.643 67.2245 104.181C67.371 104.572 69.0066 106.427 70.8865 108.307C74.6461 112.116 75.0123 112.75 74.524 114.703C73.8404 117.364 70.5935 118.292 68.3719 116.461L67.4686 115.729L67.9081 114.948C68.2254 114.362 68.3231 113.58 68.3231 111.725C68.3231 109.528 68.2498 109.162 67.6395 107.941C66.4921 105.695 64.6367 104.133 62.3174 103.449L61.3165 103.156L61.2677 101.081C61.2188 98.6884 60.5353 96.9307 59.0461 95.2706C57.9231 94.0499 55.5794 92.8537 53.8461 92.634C52.6742 92.5119 52.5766 92.4386 52.5766 91.8283C52.5766 90.8762 51.893 88.7034 51.2583 87.7025C50.4771 86.4818 48.817 85.0415 47.4742 84.4311C46.6198 84.0405 45.863 83.9185 44.2029 83.894H42.0789L41.8104 82.9175C41.1756 80.5006 38.9785 78.1081 36.5616 77.2048C35.3653 76.741 34.7794 76.6677 33.0461 76.741C31.0198 76.8386 29.7747 77.2781 28.1146 78.4499C27.7484 78.7185 27.6263 78.6696 27.3334 78.279C27.1381 78.0105 25.0386 75.203 22.6949 72.0537C20.3268 68.9044 18.4226 66.1701 18.4714 65.9992C18.5691 65.4133 40.9071 38.3879 41.2001 38.4856C41.3465 38.5344 42.4695 38.8518 43.6658 39.1936ZM35.5118 82.1363C37.0254 83.1372 37.5869 85.0659 36.8545 86.7748C36.3174 88.0443 32.6066 91.4865 31.4348 91.8039C29.555 92.3166 27.7728 91.3645 27.0648 89.5091C26.3569 87.7025 26.6742 86.9213 28.9691 84.5532C30.0677 83.4058 31.3127 82.2828 31.7033 82.0386C32.7531 81.3795 34.462 81.4283 35.5118 82.1363ZM45.6433 89.0452C47.1569 89.7776 47.9137 91.3889 47.5719 93.2199C47.4254 93.9767 46.8151 94.7579 43.9587 97.6386C42.0545 99.5673 40.1991 101.301 39.8329 101.496C38.8808 101.984 37.2207 101.935 36.2686 101.349C34.6817 100.373 34.0226 98.1025 34.8526 96.5156C35.3409 95.5879 41.8348 89.2161 42.5672 88.9232C43.4949 88.557 44.7156 88.6058 45.6433 89.0452ZM54.1146 97.7851C55.8479 98.4931 56.8001 100.519 56.2874 102.277C55.8724 103.595 49.1587 110.236 47.8893 110.578C45.7897 111.139 43.5925 109.699 43.3728 107.624C43.2996 107.013 43.324 106.208 43.4217 105.817C43.617 104.987 50.1597 98.2734 51.2339 97.7851C52.186 97.3701 53.1381 97.3701 54.1146 97.7851ZM61.7071 108.503C63.3916 109.455 64.0264 111.627 63.1719 113.434C62.9522 113.898 61.878 115.143 60.755 116.217C59.2658 117.657 58.4846 118.219 57.8498 118.317C56.4827 118.585 55.262 118.243 54.3832 117.364C53.6508 116.632 52.9916 115.07 53.1869 114.459C53.2357 114.288 53.3334 113.849 53.431 113.458C53.5287 113.019 54.3343 111.945 55.4573 110.797C58.1916 107.965 59.7785 107.379 61.7071 108.503Z" fill="white"/>
</svg>
