<svg width="118" height="117" viewBox="0 0 118 117" fill="none" xmlns="http://www.w3.org/2000/svg">
<path d="M22.8269 0.287842C19.3451 0.920891 16.2529 2.55221 13.5503 5.25483C11.3833 7.44614 10.0929 9.49137 9.09463 12.4131L8.46158 14.2879L8.38854 53.9021L8.33984 93.5405H10.2877H12.2355V54.9977C12.2355 28.7019 12.3086 15.9923 12.5033 14.994C12.9173 12.6079 14.4025 9.88094 16.2529 8.03049C18.1034 6.1557 20.9521 4.62178 23.2895 4.20786C25.2373 3.84264 44.0583 3.84264 45.9818 4.20786C51.6062 5.20613 56.281 10.2949 56.9384 16.114L57.1088 17.5749H59.0566H61.0045L60.8097 15.8218C60.4201 11.7801 58.7401 8.32267 55.6966 5.27917C53.481 3.06351 51.4601 1.77307 48.6357 0.847847L46.6879 0.190453L35.3661 0.141754C29.133 0.117409 23.5086 0.190453 22.8269 0.287842Z" fill="white"/>
<path d="M106.754 0.361038C105.902 0.848 97.9405 12.9246 97.9405 13.7524C97.9405 14.142 98.184 14.6776 98.5492 15.0185C99.1092 15.6029 99.2553 15.6272 102.445 15.6272H105.732L105.683 58.8935L105.61 102.184L105.05 103.694C103.857 106.883 101.325 109.878 98.6953 111.266C95.5301 112.922 95.8222 112.897 83.3317 112.897C72.9352 112.897 71.9125 112.849 70.6708 112.435C65.509 110.682 61.8568 106.469 61.1264 101.356L60.8342 99.3842H58.9107H56.9629L57.1577 101.137C57.5472 105.179 59.2273 108.636 62.2707 111.68C64.4864 113.896 66.5073 115.162 69.3317 116.136L71.2795 116.793H83.3317H95.384L97.3318 116.136C100.156 115.162 102.177 113.896 104.393 111.68C106.608 109.464 107.874 107.443 108.848 104.619L109.506 102.671L109.579 59.137L109.628 15.6272H112.939C116.104 15.6272 116.25 15.6029 116.81 15.0185C117.906 13.9472 117.711 13.5089 113.28 6.88629C109.408 1.06713 108.581 0.0688629 107.68 0.0688629C107.485 0.0688629 107.071 0.190605 106.754 0.361038ZM109.822 8.68804L111.819 11.7315H107.68H103.541L105.537 8.68804C106.657 7.03238 107.607 5.66889 107.68 5.66889C107.753 5.66889 108.702 7.03238 109.822 8.68804Z" fill="white"/>
<path d="M57.0361 23.4184V25.3662H58.984H60.9318V23.4184V21.4705H58.984H57.0361V23.4184Z" fill="white"/>
<path d="M51.801 29.8709C51.2167 30.4309 51.1923 30.6013 51.1923 33.4744V36.4935L50.0723 36.9318L48.9767 37.3457L46.834 35.2518C43.7175 32.2083 44.1314 32.0622 38.3609 37.857C32.5661 43.6275 32.7122 43.2135 35.7557 46.3301L37.8496 48.4727L37.4114 49.5684L36.9488 50.6884H33.954C31.1053 50.6884 30.9348 50.7127 30.3748 51.2971L29.7661 51.8814V58.4797V65.078L30.3748 65.6624C30.9348 66.2467 31.1053 66.2711 33.954 66.2711H36.9488L37.4114 67.3911L37.8496 68.4867L35.7557 70.6293C32.7122 73.7459 32.5661 73.332 38.3609 79.1024C44.1314 84.8973 43.7175 84.7512 46.834 81.7077L48.9767 79.6137L50.0723 80.0277L51.1923 80.4659V83.4851C51.1923 86.3581 51.2167 86.5286 51.801 87.0886L52.3854 87.6973H58.9837H65.582L66.1663 87.0886C66.7507 86.5286 66.775 86.3581 66.775 83.5094V80.5146L67.895 80.052L68.9907 79.6137L71.1333 81.7077C74.2498 84.7512 73.8359 84.8973 79.6064 79.1024C85.4012 73.332 85.2551 73.7459 82.2116 70.6293L80.1177 68.4867L80.5316 67.3911L80.9699 66.2711H83.989C86.8621 66.2711 87.0325 66.2467 87.5925 65.6624L88.2012 65.078V58.4797V51.8814L87.5925 51.2971C87.0325 50.7127 86.8621 50.6884 83.989 50.6884H80.9699L80.5316 49.5684L80.1177 48.4727L82.2116 46.3301C85.2551 43.2135 85.4012 43.6275 79.6064 37.857C73.8359 32.0622 74.2498 32.2083 71.1333 35.2518L68.9907 37.3457L67.895 36.9074L66.775 36.4448V33.45C66.775 30.6013 66.7507 30.4309 66.1663 29.8709L65.582 29.2622H58.9837H52.3854L51.801 29.8709ZM62.8793 35.8118C62.8793 38.8796 63.1472 39.4396 64.8759 39.9509C65.4602 40.1214 66.6289 40.584 67.4811 40.9735C68.3333 41.3631 69.3072 41.6796 69.6481 41.6796C70.062 41.6796 70.8168 41.1196 72.229 39.7318L74.2255 37.8083L76.9525 40.5353L79.6551 43.2622L77.7316 45.2344C75.4916 47.4988 75.4429 47.6936 76.4898 49.9823C76.8794 50.8345 77.342 52.0032 77.5125 52.5875C78.0238 54.3162 78.5838 54.584 81.6516 54.584H84.3055V58.4797V62.3754H81.6516C78.5838 62.3754 78.0238 62.6432 77.5125 64.3719C77.342 64.9563 76.8794 66.125 76.4898 66.9772C76.1003 67.8293 75.7838 68.8032 75.7838 69.1441C75.7838 69.558 76.3438 70.3128 77.7316 71.725L79.6551 73.7215L76.9281 76.4485L74.2011 79.1511L72.229 77.2276C69.9646 74.9876 69.7698 74.9389 67.4811 75.9859C66.6289 76.3755 65.4602 76.8381 64.8759 77.0085C63.1472 77.5198 62.8793 78.0798 62.8793 81.1477V83.8016H58.9837H55.088V81.1477C55.088 78.0798 54.8202 77.5198 53.0915 77.0085C52.5071 76.8381 51.3384 76.3755 50.4862 75.9859C48.1975 74.9389 48.0027 74.9876 45.7384 77.2276L43.7662 79.1511L41.0392 76.4485L38.3122 73.7215L40.2357 71.725C41.6236 70.3128 42.1836 69.558 42.1836 69.1441C42.1836 68.8032 41.867 67.8293 41.4775 66.9772C41.0879 66.125 40.6253 64.9563 40.4549 64.3719C39.9436 62.6432 39.3836 62.3754 36.3157 62.3754H33.6618V58.4797V54.584H36.3157C39.3836 54.584 39.9436 54.3162 40.4549 52.5875C40.6253 52.0032 41.0879 50.8345 41.4775 49.9823C42.5244 47.6936 42.4757 47.4988 40.2357 45.2344L38.3122 43.2622L41.0149 40.5353L43.7418 37.8083L45.7384 39.7318C47.1506 41.1196 47.9053 41.6796 48.3193 41.6796C48.6601 41.6796 49.634 41.3631 50.4862 40.9735C51.3384 40.584 52.5071 40.1214 53.0915 39.9509C54.8202 39.4396 55.088 38.8796 55.088 35.8118V33.1578H58.9837H62.8793V35.8118Z" fill="white"/>
<path d="M55.5994 43.2623C52.9211 43.8466 50.0967 45.4292 48.0272 47.5232C41.9402 53.6101 41.8915 63.325 47.9054 69.3146C50.8759 72.2607 54.1385 73.7703 58.1072 73.9894C65.2168 74.379 71.7421 69.8502 73.909 62.9841C74.6638 60.5737 74.6638 56.3858 73.909 53.9754C71.4499 46.2327 63.4881 41.5579 55.5994 43.2623ZM61.7838 47.1579C65.9716 48.2536 69.2099 51.5162 70.3056 55.7284C71.8882 61.7911 68.0168 68.1702 61.7838 69.8015C55.6968 71.3842 49.2933 67.5128 47.6619 61.2798C45.495 52.9528 53.4568 44.991 61.7838 47.1579Z" fill="white"/>
<path d="M57.0361 93.5404V95.4883H58.984H60.9318V93.5404V91.5926H58.984H57.0361V93.5404Z" fill="white"/>
<path d="M7.99915 97.6798C6.46522 98.0694 4.27391 99.3842 3.2026 100.529C2.66694 101.113 1.86346 102.33 1.44954 103.231C0.743454 104.716 0.67041 105.082 0.67041 107.2C0.67041 109.391 0.719106 109.61 1.57128 111.363C2.66694 113.579 4.07912 114.943 6.34348 116.014C7.82871 116.72 8.19393 116.793 10.2879 116.793C12.3818 116.793 12.747 116.72 14.2322 116.014C16.4966 114.943 17.9088 113.579 19.0044 111.363C19.8566 109.61 19.9053 109.391 19.9053 107.176C19.9053 104.96 19.8566 104.741 19.0044 102.988C17.3488 99.6764 14.427 97.7042 10.8235 97.5337C9.80089 97.485 8.5348 97.5581 7.99915 97.6798ZM12.0896 101.624C14.1835 102.257 16.1314 104.936 16.1314 107.176C16.1314 110.195 13.307 113.019 10.2879 113.019C8.75393 113.019 7.51219 112.459 6.27044 111.193C3.78695 108.734 3.78695 105.617 6.27044 103.158C7.9748 101.429 9.80089 100.967 12.0896 101.624Z" fill="white"/>
</svg>
