<svg width="109" height="132" viewBox="0 0 109 132" fill="none" xmlns="http://www.w3.org/2000/svg">
<path d="M49.0059 0.349457C45.9855 0.682205 41.4293 1.75726 38.3322 2.85789C35.235 3.95855 31.3444 5.80148 30.6533 6.49258C29.9366 7.20928 30.039 8.59148 30.858 9.2314C31.242 9.53855 31.6771 9.76892 31.8563 9.76892C32.0355 9.76892 33.4689 9.15461 35.0814 8.38672C52.0774 0.349457 71.6074 3.36983 85.0199 16.1424C99.9426 30.3228 103.321 52.6684 93.262 70.4835C84.3288 86.302 66.6673 95.184 48.8011 92.8291C39.2024 91.5749 30.9092 87.5563 23.7167 80.6964C16.78 74.0414 12.3519 65.7226 10.5857 55.9704C9.94582 52.4125 9.94582 44.6824 10.5857 41.1245C12.3263 31.5258 16.6521 23.3094 23.5375 16.552C24.9709 15.1442 26.2507 13.7876 26.3787 13.5316C26.9418 12.5077 25.9179 11.0487 24.6637 11.0487C24.0238 11.0487 23.4607 11.3815 22.0785 12.5589C18.0599 16.0656 14.1436 21.2873 11.3792 26.7905C6.31114 36.9523 4.92893 47.3188 7.18141 58.4532C8.71719 66.1321 12.9406 74.6301 18.0343 80.3381L19.4421 81.9251L16.6265 86.8396C15.0907 89.5528 13.8109 91.9588 13.8109 92.2404C13.8109 92.9827 14.9627 93.9809 15.8074 93.9809C16.8056 93.9809 17.164 93.6226 18.4182 91.4213C19.0325 90.3719 20.1332 88.4265 20.9011 87.1211L22.2833 84.7663L24.1262 86.2508C28.5032 89.8343 33.8016 92.7267 39.2024 94.5185C41.071 95.1328 42.658 95.6703 42.7092 95.6959C42.8371 95.7727 26.5067 124.159 26.3275 124.185C26.2507 124.185 25.2268 121.164 24.075 117.453C22.8976 113.767 21.7713 110.542 21.5666 110.286C20.9523 109.62 20.0052 109.723 12.9918 111.258C9.45949 112.026 6.51591 112.615 6.43912 112.564C6.38793 112.487 7.89811 109.697 9.81784 106.344C13.5293 99.8681 13.6573 99.5098 12.4799 98.5115C11.8655 97.9996 10.7649 97.9484 10.1762 98.4091C9.74105 98.7419 1.16627 113.485 0.628747 114.842C0.449572 115.252 0.372783 115.789 0.449572 115.994C0.654343 116.634 1.57581 117.53 2.03655 117.53C2.26691 117.53 6.13196 116.711 10.6113 115.738C15.0907 114.74 18.8022 113.997 18.8789 114.048C18.9301 114.125 20.1332 117.786 21.5154 122.188C23.3071 127.845 24.2286 130.328 24.5869 130.635C25.3804 131.3 26.3019 131.198 27.0698 130.379C27.4537 129.995 32.0355 122.214 37.2315 113.101L46.7022 96.5406L48.4939 96.7454C50.8488 96.9757 58.2461 96.9757 60.5242 96.7198L62.316 96.515L68.0751 106.574C71.2491 112.103 74.0391 116.813 74.2951 117.069C74.9862 117.786 76.3684 117.683 77.0083 116.864C77.3154 116.48 77.5458 115.994 77.5458 115.763C77.5458 115.533 75.0118 110.926 71.9146 105.525C68.8174 100.124 66.309 95.6703 66.3346 95.6447C66.3858 95.6191 67.1537 95.3887 68.0751 95.1328C73.9111 93.4434 80.515 89.9367 85.2503 86.0205C86.1206 85.2782 86.8885 84.7663 86.9397 84.9198C86.9908 85.0478 90.5743 91.3189 94.9257 98.8443C99.2771 106.37 102.809 112.564 102.784 112.59C102.784 112.59 99.661 111.95 95.8728 111.105C92.0845 110.286 88.7826 109.595 88.5522 109.595C87.426 109.595 87.2724 109.979 83.8937 120.652L82.793 124.185L81.8972 122.956C80.8989 121.625 79.9774 121.318 78.9792 121.983C77.8018 122.751 77.9041 123.494 79.6191 126.591C81.9228 130.712 82.0252 130.84 83.1002 130.84C84.7896 130.84 84.508 131.48 88.9106 117.504L90.088 113.793L97.9717 115.533C102.297 116.48 106.214 117.299 106.7 117.325C107.749 117.376 108.517 116.583 108.517 115.456C108.517 114.97 105.523 109.544 99.2515 98.6651C94.1834 89.8343 89.96 82.3858 89.8832 82.1298C89.8064 81.8739 90.1392 81.2852 90.7535 80.5941C93.4411 77.6761 95.9752 73.8622 98.0485 69.5364C106.239 52.6172 103.833 32.4473 91.8798 17.8318C89.7297 15.1954 85.1479 10.9208 82.3835 8.94984C79.5423 6.90213 74.5766 4.31689 71.0955 3.01147C64.4149 0.528641 56.1472 -0.46962 49.0059 0.349457Z" fill="white"/>
<path d="M48.8778 13.7366C34.0575 16.245 22.3344 27.8658 19.8515 42.5837C19.2884 45.8089 19.2884 51.2865 19.8515 54.5116C22.0272 67.361 31.1139 77.9067 43.5794 82.0789C47.0861 83.2563 50.3368 83.7427 54.637 83.7427C63.1862 83.7427 70.6603 81.0295 77.213 75.5006C81.206 72.1475 85.9925 65.7228 85.9925 63.7007C85.9925 62.856 84.9687 61.9858 83.996 61.9858C83.1001 61.9858 83.2793 61.781 80.3357 66.286C76.7266 71.8148 70.7115 76.3197 64.082 78.4954C58.2717 80.3896 50.7719 80.3896 44.936 78.4954C40.303 76.9852 36.1052 74.4 32.5473 70.8933C25.8411 64.2638 22.6927 55.7914 23.307 46.0648C24.0237 35.3399 30.7556 25.3574 40.6358 20.4173C47.8795 16.7826 56.6591 16.1683 64.338 18.7535C75.2164 22.3882 83.2281 31.6541 85.3526 43.0444C85.8133 45.5273 85.8901 51.0561 85.4806 53.411C85.1222 55.5611 85.1478 55.9194 85.7365 56.5593C86.4788 57.3528 87.8354 57.3272 88.501 56.4825C89.1921 55.6123 89.6016 52.5919 89.6016 48.4709C89.6016 44.7594 89.3456 42.7373 88.4242 39.333C84.9175 26.0741 73.6807 15.9379 60.0122 13.7366C57.2478 13.2759 51.5398 13.2759 48.8778 13.7366Z" fill="white"/>
<path d="M53.5366 26.0738C53.3574 26.1506 51.8473 28.915 50.1835 32.2681L47.1375 38.3088L40.7896 39.2047C34.8257 40.0494 34.3649 40.1518 33.725 40.7917C32.4452 42.0203 32.5988 42.2507 37.846 47.4723L42.7094 52.2844L41.5575 58.8627C40.4057 65.3642 40.4057 65.4154 40.892 66.0553C41.8391 67.3351 42.5046 67.1559 48.6221 63.9308C51.7193 62.2926 54.3557 60.9616 54.5349 60.9616C54.6885 60.9616 57.3249 62.2926 60.3964 63.9308C66.4884 67.1559 67.1795 67.3351 68.1265 66.0553C68.6129 65.4154 68.6129 65.3642 67.461 58.8627L66.3092 52.31L71.1725 47.4723C74.5 44.1448 76.0102 42.481 76.0102 42.0971C76.0102 41.7899 75.7543 41.2268 75.4215 40.8429C74.8584 40.203 74.5256 40.1262 68.3569 39.2303L61.8554 38.3088L58.9374 32.4217C57.3249 29.1709 55.8147 26.3809 55.5843 26.2018C55.1748 25.8946 54.1509 25.8178 53.5366 26.0738ZM56.813 36.8242C58.016 39.3071 59.219 41.4572 59.5006 41.6364C59.9101 41.8923 68.5873 43.3001 69.7391 43.3001C69.8927 43.3001 68.3057 44.9383 66.2068 46.9604C62.7513 50.3135 62.4441 50.6719 62.4441 51.491C62.4441 52.0029 62.8025 54.4089 63.212 56.8406C63.6472 59.2722 63.9543 61.32 63.9287 61.3455C63.8775 61.3967 61.9066 60.3729 59.5006 59.0931C57.1201 57.8133 54.8676 56.7894 54.5093 56.7894C54.1509 56.7894 51.924 57.8388 49.518 59.1187C47.1375 60.3985 45.141 61.3967 45.0898 61.3455C45.0642 61.32 45.3714 59.2722 45.8065 56.8406C46.2161 54.4089 46.5744 52.0029 46.5744 51.491C46.5744 50.6719 46.2928 50.3135 42.8117 46.9604C40.7128 44.9383 39.1515 43.3001 39.2794 43.3001C40.4569 43.3001 49.1084 41.8923 49.518 41.6364C49.7995 41.4572 51.0282 39.2815 52.2056 36.8242C53.4086 34.3414 54.4325 32.3193 54.5093 32.3193C54.5861 32.3193 55.6099 34.3414 56.813 36.8242Z" fill="white"/>
</svg>
