<svg width="43" height="49" viewBox="0 0 43 49" fill="none" xmlns="http://www.w3.org/2000/svg">
<path d="M19.6888 7.54882C19.6888 7.42861 19.6888 7.35097 19.6888 7.27333C19.6888 5.42091 19.6852 3.5685 19.6907 1.71609C19.6935 0.787123 20.4182 0.0359109 21.3258 0.00122747C22.2829 -0.0350325 23.0883 0.736675 23.0902 1.70348C23.0942 3.53618 23.0914 5.36889 23.0914 7.20159C23.0914 7.46645 23.0942 7.4696 23.3132 7.33915C24.535 6.6104 25.7552 5.87889 26.9773 5.15093C28.0296 4.52427 29.3218 5.09576 29.5589 6.29076C29.6993 6.99704 29.3639 7.70411 28.6938 8.10573C27.4398 8.85694 26.1842 9.60618 24.9298 10.357C24.373 10.6904 23.8185 11.0278 23.2589 11.3565C23.137 11.4282 23.0887 11.5114 23.0887 11.6549C23.0922 14.8737 23.091 18.0922 23.0918 21.3111C23.0918 21.5243 23.1099 21.5334 23.2975 21.425C25.9919 19.8638 28.682 18.2956 31.3855 16.751C31.7036 16.5693 31.8192 16.3844 31.8149 16.0218C31.8031 15.0109 31.8337 13.9996 31.8522 12.9886C31.8707 11.9844 31.8947 10.9801 31.9163 9.97588C31.936 9.05834 32.6678 8.32132 33.5706 8.30989C34.5077 8.29807 35.3024 9.00671 35.3091 9.92937C35.3182 11.137 35.2726 12.345 35.2513 13.553C35.247 13.8092 35.2501 14.0654 35.2411 14.3212C35.2356 14.4792 35.2875 14.4851 35.4094 14.4138C36.1963 13.9542 36.9855 13.4986 37.7743 13.0422C38.6083 12.5598 39.4412 12.0746 40.278 11.5969C40.9445 11.2166 41.8517 11.3904 42.3735 11.9899C42.893 12.5866 42.915 13.4931 42.4333 14.1403C42.2556 14.3795 42.0184 14.5371 41.7676 14.6822C40.1954 15.5907 38.6229 16.4987 37.0508 17.4076C37.0236 17.4234 36.9992 17.4435 36.9477 17.4801C37.2096 17.6279 37.4522 17.7651 37.6953 17.9014C38.7869 18.5151 39.8789 19.1276 40.9697 19.742C41.8006 20.2103 42.0873 21.2173 41.6366 22.0796C41.2367 22.845 40.208 23.1852 39.4062 22.7658C38.4424 22.2617 37.5037 21.7095 36.5553 21.1767C35.5836 20.6312 34.6119 20.0853 33.6422 19.5363C33.536 19.476 33.4511 19.487 33.3504 19.5454C30.7535 21.0525 28.1558 22.5577 25.5582 24.0633C25.3596 24.1784 25.1637 24.2982 24.9612 24.4058C24.8244 24.4783 24.8346 24.5217 24.9624 24.595C25.6108 24.9666 26.2558 25.3446 26.9022 25.7194C28.0481 26.3827 29.1948 27.0457 30.341 27.7082C31.3284 28.2793 32.317 28.848 33.3021 29.4231C33.424 29.4944 33.5164 29.4991 33.6426 29.4278C35.5179 28.3628 37.3956 27.3015 39.2749 26.2436C40.0629 25.8002 41.0987 26.1045 41.5619 26.9061C42.0255 27.7086 41.7467 28.7491 40.9182 29.2323C40.0688 29.7277 39.2072 30.2015 38.3512 30.6851C37.9229 30.9267 37.4963 31.1706 37.0661 31.4087C36.9422 31.4773 36.9237 31.5214 37.061 31.6006C38.3512 32.3424 39.6394 33.0869 40.9272 33.833C41.313 34.0565 41.7035 34.2732 42.0759 34.5172C42.6346 34.8837 42.895 35.6282 42.7282 36.3085C42.5627 36.9833 41.9937 37.4905 41.3307 37.5804C40.9001 37.6387 40.5128 37.541 40.1447 37.3277C38.6469 36.4603 37.1494 35.5928 35.6504 34.7277C35.5687 34.6804 35.4786 34.5736 35.3929 34.6216C35.3036 34.6717 35.3555 34.8029 35.3567 34.8975C35.3709 36.0007 35.385 37.1039 35.4086 38.207C35.4165 38.5744 35.466 38.9425 35.4094 39.3078C35.2726 40.1887 34.4995 40.8446 33.6741 40.7917C32.7276 40.731 32.0327 40.0173 32.0135 39.0714C31.9899 37.9091 31.9788 36.7468 31.9568 35.5849C31.9387 34.6264 31.9092 33.6682 31.8927 32.7097C31.8904 32.5659 31.816 32.5004 31.7083 32.4382C30.2604 31.6026 28.8137 30.7651 27.3662 29.9287C26.0096 29.1452 24.6525 28.3621 23.2951 27.5793C23.1016 27.4678 23.093 27.4717 23.093 27.6909C23.0922 30.903 23.0934 34.1152 23.0894 37.3273C23.0894 37.4708 23.1398 37.5555 23.2601 37.6273C24.8484 38.5736 26.4347 39.5234 28.021 40.4729C28.2742 40.6242 28.5271 40.7764 28.7772 40.9325C29.5786 41.4334 29.8239 42.4656 29.3375 43.2803C28.8676 44.0674 27.8185 44.3271 27.0119 43.8482C25.7776 43.1151 24.5472 42.3754 23.314 41.6399C23.2546 41.6044 23.1933 41.5252 23.1244 41.5642C23.0556 41.6033 23.093 41.6971 23.093 41.7656C23.091 43.6114 23.095 45.4575 23.0894 47.3032C23.0867 48.2664 22.27 49.0409 21.3172 48.9983C20.4068 48.9577 19.6923 48.2089 19.69 47.276C19.6852 45.5091 19.6892 43.7418 19.6868 41.9749C19.6868 41.8732 19.7395 41.7298 19.653 41.6793C19.5681 41.6297 19.4674 41.7432 19.3805 41.7952C18.2094 42.494 17.0396 43.1948 15.8709 43.8971C15.2232 44.2865 14.5736 44.2975 13.9468 43.8735C12.9405 43.1928 12.9755 41.6841 14.0164 41.033C14.9 40.4804 15.8021 39.9574 16.6963 39.4214C17.6467 38.8518 18.5956 38.28 19.5496 37.716C19.6935 37.6308 19.6892 37.513 19.6892 37.3798C19.6884 34.2728 19.6884 31.1655 19.6884 28.0586C19.6884 27.9336 19.6896 27.8091 19.688 27.6842C19.6856 27.4764 19.6727 27.4674 19.4961 27.5687C19.0525 27.8229 18.6098 28.0791 18.1674 28.3353C16.749 29.1562 15.3306 29.9776 13.9126 30.7986C12.9936 31.3306 12.0754 31.8639 11.1541 32.3924C11.0479 32.4531 11.0153 32.5284 11.0102 32.6455C10.9736 33.466 10.9834 34.287 10.9693 35.1076C10.9465 36.4402 10.9252 37.7731 10.8934 39.1057C10.8721 39.9936 10.1478 40.7318 9.28387 40.7657C8.35584 40.802 7.56112 40.1548 7.50843 39.2353C7.4636 38.451 7.51432 37.6612 7.52415 36.8737C7.53359 36.1185 7.54775 35.3634 7.55207 34.6082C7.55325 34.4356 7.44629 34.5487 7.39989 34.5751C6.93745 34.836 6.47777 35.1017 6.01808 35.3677C4.89501 36.018 3.76565 36.6585 2.65123 37.3242C1.64849 37.9233 0.552942 37.4594 0.166395 36.6388C-0.222118 35.8143 0.0952204 34.8467 0.88601 34.3919C2.43731 33.4995 3.98389 32.599 5.53126 31.6999C5.75068 31.5723 5.74714 31.5344 5.52221 31.4079C4.28825 30.7134 3.05036 30.0257 1.8219 29.3214C0.791241 28.731 0.648891 27.3614 1.52147 26.5573C2.05194 26.0682 2.87026 25.9941 3.53718 26.3697C5.37632 27.4059 7.21743 28.4381 9.05422 29.4778C9.19146 29.5555 9.28859 29.5342 9.41285 29.4621C12.123 27.8891 14.8347 26.3189 17.5465 24.7487C17.9755 24.5004 17.9786 24.496 17.5488 24.2469C15.5233 23.0744 13.4962 21.905 11.4698 20.7341C10.8285 20.3636 10.1863 19.9943 9.54851 19.6171C9.42386 19.5434 9.33066 19.5505 9.20758 19.6202C7.32046 20.6911 5.43216 21.7604 3.54072 22.8233C2.73223 23.2778 1.69056 22.9723 1.23913 22.1628C0.78023 21.3394 1.0669 20.31 1.8915 19.841C3.17344 19.1118 4.45813 18.3866 5.74085 17.6587C5.7959 17.6275 5.88477 17.6125 5.88595 17.5416C5.88752 17.4584 5.79197 17.4427 5.73259 17.4084C4.10422 16.466 2.47113 15.5311 0.847473 14.5809C0.0790979 14.1308 -0.200097 13.2227 0.147913 12.4081C0.537213 11.4964 1.69449 11.124 2.55331 11.6233C4.12309 12.5361 5.6972 13.4415 7.27013 14.3491C7.45849 14.4579 7.46399 14.456 7.46006 14.2325C7.43489 12.8144 7.40029 11.3963 7.38495 9.97824C7.37827 9.34251 7.67594 8.85261 8.21624 8.52863C9.33735 7.85625 10.7557 8.65436 10.7833 9.9676C10.8013 10.8146 10.8112 11.6616 10.8273 12.5086C10.8513 13.769 10.8816 15.0294 10.8989 16.2898C10.9012 16.4708 11.0161 16.5232 11.1328 16.591C12.318 17.2783 13.5036 17.9649 14.6896 18.6511C16.2728 19.567 17.8563 20.4826 19.4395 21.3982C19.4792 21.421 19.5193 21.4439 19.559 21.4664C19.6554 21.5207 19.6907 21.4805 19.6888 21.382C19.688 21.3426 19.6892 21.3032 19.6892 21.2638C19.6892 18.104 19.6876 14.9447 19.6931 11.7849C19.6935 11.5961 19.6314 11.4941 19.4686 11.3979C18.2771 10.6952 17.0931 9.98021 15.9059 9.26999C15.3208 8.92 14.7372 8.56726 14.1485 8.22318C13.169 7.65051 12.9173 6.4693 13.5964 5.60813C14.1104 4.95623 15.0766 4.79346 15.819 5.23725C17.029 5.96048 18.2374 6.68607 19.4466 7.41009C19.5134 7.45029 19.5814 7.48773 19.6888 7.54882Z" fill="#959595"/>
</svg>
