<svg width="49" height="49" viewBox="0 0 49 49" fill="none" xmlns="http://www.w3.org/2000/svg">
<path d="M41.3438 33.9034V27.5625C41.3438 26.7503 41.0211 25.9713 40.4468 25.397C39.8724 24.8227 39.0935 24.5 38.2813 24.5H26.0313V18.375H29.0938C29.906 18.375 30.6849 18.0523 31.2593 17.478C31.8336 16.9037 32.1563 16.1247 32.1563 15.3125V6.125C32.1563 5.31277 31.8336 4.53382 31.2593 3.95949C30.6849 3.38516 29.906 3.0625 29.0938 3.0625H19.9063C19.094 3.0625 18.3151 3.38516 17.7408 3.95949C17.1664 4.53382 16.8438 5.31277 16.8438 6.125V15.3125C16.8438 16.1247 17.1664 16.9037 17.7408 17.478C18.3151 18.0523 19.094 18.375 19.9063 18.375H22.9688V24.5H10.7188C9.90654 24.5 9.12758 24.8227 8.55325 25.397C7.97892 25.9713 7.65626 26.7503 7.65626 27.5625V33.9049C6.21282 34.2776 4.95485 35.164 4.11816 36.3978C3.28146 37.6317 2.92349 39.1283 3.11133 40.6072C3.29918 42.0861 4.01995 43.4457 5.13853 44.4312C6.25712 45.4167 7.69673 45.9604 9.18751 45.9604C10.6783 45.9604 12.1179 45.4167 13.2365 44.4312C14.3551 43.4457 15.0759 42.0861 15.2637 40.6072C15.4515 39.1283 15.0936 37.6317 14.2569 36.3978C13.4202 35.164 12.1622 34.2776 10.7188 33.9049V27.5625H22.9688V33.9049C21.5253 34.2776 20.2673 35.164 19.4307 36.3978C18.594 37.6317 18.236 39.1283 18.4238 40.6072C18.6117 42.0861 19.3324 43.4457 20.451 44.4312C21.5696 45.4167 23.0092 45.9604 24.5 45.9604C25.9908 45.9604 27.4304 45.4167 28.549 44.4312C29.6676 43.4457 30.3884 42.0861 30.5762 40.6072C30.764 39.1283 30.4061 37.6317 29.5694 36.3978C28.7327 35.164 27.4747 34.2776 26.0313 33.9049V27.5625H38.2813V33.9034C36.8378 34.2761 35.5798 35.1624 34.7432 36.3963C33.9065 37.6301 33.5485 39.1268 33.7363 40.6057C33.9242 42.0846 34.6449 43.4442 35.7635 44.4297C36.8821 45.4152 38.3217 45.9589 39.8125 45.9589C41.3033 45.9589 42.7429 45.4152 43.8615 44.4297C44.9801 43.4442 45.7009 42.0846 45.8887 40.6057C46.0765 39.1268 45.7186 37.6301 44.8819 36.3963C44.0452 35.1624 42.7872 34.2761 41.3438 33.9034ZM19.9063 6.125H29.0938L29.0953 15.3125H19.9063V6.125ZM12.25 39.8125C12.25 40.4182 12.0704 41.0103 11.7339 41.5139C11.3974 42.0176 10.9191 42.4101 10.3595 42.6419C9.79988 42.8737 9.18412 42.9343 8.59005 42.8162C7.99598 42.698 7.4503 42.4063 7.022 41.978C6.5937 41.5497 6.30203 41.004 6.18386 40.41C6.06569 39.8159 6.12634 39.2001 6.35813 38.6405C6.58993 38.0809 6.98246 37.6026 7.48608 37.2661C7.98971 36.9296 8.58181 36.75 9.18751 36.75C9.99974 36.75 10.7787 37.0727 11.353 37.647C11.9274 38.2213 12.25 39.0003 12.25 39.8125ZM27.5625 39.8125C27.5625 40.4182 27.3829 41.0103 27.0464 41.5139C26.7099 42.0176 26.2316 42.4101 25.672 42.6419C25.1124 42.8737 24.4966 42.9343 23.9025 42.8162C23.3085 42.698 22.7628 42.4063 22.3345 41.978C21.9062 41.5497 21.6145 41.004 21.4964 40.41C21.3782 39.8159 21.4388 39.2001 21.6706 38.6405C21.9024 38.0809 22.295 37.6026 22.7986 37.2661C23.3022 36.9296 23.8943 36.75 24.5 36.75C25.3119 36.7512 26.0901 37.0743 26.6642 37.6483C27.2383 38.2224 27.5613 39.0006 27.5625 39.8125ZM39.8125 42.875C39.2068 42.875 38.6147 42.6954 38.1111 42.3589C37.6075 42.0224 37.2149 41.5441 36.9831 40.9845C36.7513 40.4249 36.6907 39.8091 36.8089 39.215C36.927 38.621 37.2187 38.0753 37.647 37.647C38.0753 37.2187 38.621 36.927 39.215 36.8088C39.8091 36.6907 40.4249 36.7513 40.9845 36.9831C41.5441 37.2149 42.0224 37.6074 42.3589 38.1111C42.6954 38.6147 42.875 39.2068 42.875 39.8125C42.875 40.6247 42.5524 41.4037 41.978 41.978C41.4037 42.5523 40.6247 42.875 39.8125 42.875Z" fill="#ACACAC"/>
</svg>
