<svg width="49" height="49" viewBox="0 0 49 49" fill="none" xmlns="http://www.w3.org/2000/svg">
<path d="M7.83769 11.96C13.8402 3.96482 26.2739 1.63936 35.1225 7.14165C43.8609 12.5725 47.0744 23.0197 43.4934 32.8197C40.1144 42.0746 31.2107 45.7394 24.7937 41.0844C22.3907 39.3408 21.4576 37.1542 21.0085 33.6037L20.7921 31.5886L20.7002 30.776C20.4491 28.8691 20.0652 28.0157 19.2608 27.5665C18.1685 26.9581 17.4396 26.9438 16.0044 27.4991L15.2877 27.7972L14.9223 27.9564C12.852 28.8548 11.4759 29.1712 9.7344 28.8058L9.32606 28.7098L8.99123 28.6139C3.29702 26.8499 2.45381 19.1262 7.83769 11.96ZM9.84669 25.6718L10.0978 25.7474L10.3714 25.8086C11.2677 25.9862 12.0333 25.8392 13.3053 25.3145L14.5344 24.7898C16.9884 23.7833 18.5871 23.6873 20.7533 24.8919C22.6255 25.9372 23.3564 27.542 23.728 30.3227L23.8362 31.2599L23.9485 32.346L24.0444 33.2076C24.3956 35.9863 25.0346 37.4747 26.5924 38.6058C31.2372 41.9745 37.891 39.2367 40.6187 31.7682C43.7139 23.2912 40.9739 14.3855 33.5055 9.74069C26.0024 5.07752 15.3367 7.07427 10.2856 13.7975C6.04919 19.4386 6.56981 24.5775 9.84669 25.6718ZM32.7644 21.6007C32.6679 21.2741 32.6378 20.9315 32.6759 20.593C32.7139 20.2546 32.8193 19.9272 32.9858 19.6301C33.1523 19.333 33.3766 19.0722 33.6455 18.8632C33.9143 18.6541 34.2223 18.501 34.5513 18.4129C34.8803 18.3247 35.2235 18.3032 35.5609 18.3498C35.8983 18.3964 36.2229 18.51 36.5157 18.684C36.8085 18.858 37.0635 19.0888 37.2657 19.3629C37.4679 19.6369 37.6132 19.9487 37.693 20.2798C37.849 20.9269 37.746 21.6094 37.4059 22.1817C37.0659 22.7539 36.5157 23.1707 35.8727 23.343C35.2297 23.5153 34.5448 23.4296 33.9641 23.1041C33.3835 22.7787 32.9529 22.2392 32.7644 21.6007ZM33.773 28.7221C33.6862 28.3983 33.6641 28.0607 33.7079 27.7284C33.7516 27.3961 33.8604 27.0756 34.028 26.7854C34.1956 26.4951 34.4187 26.2407 34.6847 26.0367C34.9506 25.8327 35.2541 25.683 35.5778 25.5963C35.9016 25.5095 36.2392 25.4874 36.5715 25.5312C36.9038 25.5749 37.2242 25.6837 37.5145 25.8513C37.8048 26.0189 38.0592 26.242 38.2632 26.508C38.4672 26.7739 38.6169 27.0774 38.7036 27.4011C38.8788 28.055 38.787 28.7516 38.4486 29.3378C38.1101 29.924 37.5526 30.3517 36.8988 30.5269C36.2449 30.7021 35.5483 30.6103 34.9621 30.2719C34.3759 29.9334 33.9482 29.3759 33.773 28.7221ZM28.726 15.4696C28.5508 14.8158 28.6426 14.1191 28.981 13.5329C29.3195 12.9467 29.877 12.519 30.5308 12.3438C31.1847 12.1686 31.8813 12.2604 32.4675 12.5989C33.0537 12.9373 33.4814 13.4948 33.6566 14.1486C33.7433 14.4724 33.7655 14.8101 33.7217 15.1424C33.6779 15.4747 33.5692 15.7951 33.4016 16.0853C33.234 16.3756 33.0108 16.63 32.7449 16.834C32.479 17.0381 32.1755 17.1877 31.8518 17.2744C31.1979 17.4496 30.5013 17.3579 29.9151 17.0194C29.6248 16.8518 29.3704 16.6287 29.1664 16.3628C28.9624 16.0969 28.8127 15.7934 28.726 15.4696ZM28.6688 33.8405C28.5724 33.5139 28.5423 33.1713 28.5803 32.8328C28.6183 32.4944 28.7237 32.167 28.8902 31.8699C29.0567 31.5728 29.281 31.312 29.5499 31.103C29.8188 30.8939 30.1267 30.7408 30.4557 30.6526C30.7847 30.5645 31.128 30.543 31.4653 30.5896C31.8027 30.6362 32.1274 30.7498 32.4201 30.9238C32.7129 31.0978 32.9679 31.3286 33.1701 31.6027C33.3723 31.8767 33.5176 32.1885 33.5974 32.5196C33.7534 33.1667 33.6504 33.8492 33.3104 34.4215C32.9703 34.9937 32.4201 35.4105 31.7771 35.5828C31.1341 35.7551 30.4492 35.6694 29.8686 35.3439C29.2879 35.0184 28.8573 34.479 28.6688 33.8405ZM21.5291 13.4851C21.4392 13.1603 21.4146 12.821 21.4566 12.4866C21.4985 12.1522 21.6063 11.8295 21.7737 11.537C21.9411 11.2445 22.1647 10.9881 22.4317 10.7825C22.6987 10.5769 23.0037 10.4262 23.3293 10.3391C23.6548 10.252 23.9944 10.2303 24.3284 10.2751C24.6624 10.32 24.9842 10.4305 25.2752 10.6004C25.5662 10.7703 25.8208 10.9961 26.0241 11.2648C26.2274 11.5336 26.3754 11.8399 26.4597 12.1662C26.6281 12.8179 26.5322 13.5097 26.1929 14.091C25.8536 14.6723 25.2985 15.096 24.6482 15.2699C23.998 15.4439 23.3055 15.3539 22.7213 15.0196C22.1371 14.6853 21.7086 14.1338 21.5291 13.4851Z" fill="#ACACAC"/>
</svg>
