<svg width="40" height="41" viewBox="0 0 40 41" fill="none" xmlns="http://www.w3.org/2000/svg">
<path d="M29.9997 25.5H26.6663V28.8333H29.9997M29.9997 18.8333H26.6663V22.1667H29.9997M33.333 32.1667H19.9997V28.8333H23.333V25.5H19.9997V22.1667H23.333V18.8333H19.9997V15.5H33.333M16.6663 12.1667H13.333V8.83333H16.6663M16.6663 18.8333H13.333V15.5H16.6663M16.6663 25.5H13.333V22.1667H16.6663M16.6663 32.1667H13.333V28.8333H16.6663M9.99967 12.1667H6.66634V8.83333H9.99967M9.99967 18.8333H6.66634V15.5H9.99967M9.99967 25.5H6.66634V22.1667H9.99967M9.99967 32.1667H6.66634V28.8333H9.99967M19.9997 12.1667V5.5H3.33301V35.5H36.6663V12.1667H19.9997Z" fill="#ACACAC"/>
</svg>
