<svg width="40" height="41" viewBox="0 0 40 41" fill="none" xmlns="http://www.w3.org/2000/svg">
<g clip-path="url(#clip0_531_17470)">
<path d="M35 19.8945C35.7812 20.4284 36.4779 21.0339 37.0898 21.7109C37.7018 22.388 38.2292 23.1302 38.6719 23.9375C39.1146 24.7448 39.4401 25.5977 39.6484 26.4961C39.8568 27.3945 39.974 28.3125 40 29.25C40 30.7995 39.707 32.2578 39.1211 33.625C38.5352 34.9922 37.7279 36.1836 36.6992 37.1992C35.6706 38.2148 34.4792 39.0156 33.125 39.6016C31.7708 40.1875 30.3125 40.487 28.75 40.5C27.5651 40.5 26.4193 40.3242 25.3125 39.9727C24.2057 39.6211 23.1901 39.1133 22.2656 38.4492C21.3411 37.7852 20.5208 36.9909 19.8047 36.0664C19.0885 35.1419 18.5352 34.1198 18.1445 33H2.5V3H7.5V0.5H10V3H27.5V0.5H30V3H35V19.8945ZM5 5.5V10.5H32.5V5.5H30V8H27.5V5.5H10V8H7.5V5.5H5ZM17.5586 30.5C17.5195 30.0964 17.5 29.6797 17.5 29.25C17.5 28.1302 17.6562 27.043 17.9688 25.9883C18.2812 24.9336 18.7565 23.9375 19.3945 23H17.5V20.5H20V22.1797C20.5339 21.5156 21.1263 20.9297 21.7773 20.4219C22.4284 19.9141 23.1315 19.4779 23.8867 19.1133C24.6419 18.7487 25.4297 18.4753 26.25 18.293C27.0703 18.1107 27.9036 18.013 28.75 18C30.0521 18 31.3021 18.2148 32.5 18.6445V13H5V30.5H17.5586ZM28.75 38C29.9609 38 31.0938 37.7721 32.1484 37.3164C33.2031 36.8607 34.1276 36.2357 34.9219 35.4414C35.7161 34.6471 36.3411 33.7227 36.7969 32.668C37.2526 31.6133 37.487 30.474 37.5 29.25C37.5 28.0391 37.2721 26.9062 36.8164 25.8516C36.3607 24.7969 35.7357 23.8724 34.9414 23.0781C34.1471 22.2839 33.2227 21.6589 32.168 21.2031C31.1133 20.7474 29.974 20.513 28.75 20.5C27.5391 20.5 26.4062 20.7279 25.3516 21.1836C24.2969 21.6393 23.3724 22.2643 22.5781 23.0586C21.7839 23.8529 21.1589 24.7773 20.7031 25.832C20.2474 26.8867 20.013 28.026 20 29.25C20 30.4609 20.2279 31.5938 20.6836 32.6484C21.1393 33.7031 21.7643 34.6276 22.5586 35.4219C23.3529 36.2161 24.2773 36.8411 25.332 37.2969C26.3867 37.7526 27.526 37.987 28.75 38ZM30 28H33.75V30.5H27.5V23H30V28ZM7.5 20.5H10V23H7.5V20.5ZM12.5 20.5H15V23H12.5V20.5ZM12.5 15.5H15V18H12.5V15.5ZM7.5 25.5H10V28H7.5V25.5ZM12.5 25.5H15V28H12.5V25.5ZM20 18H17.5V15.5H20V18ZM25 18H22.5V15.5H25V18ZM30 18H27.5V15.5H30V18Z" fill="#959595"/>
</g>
<defs>
<clipPath id="clip0_531_17470">
<rect width="40" height="40" fill="white" transform="translate(0 0.5)"/>
</clipPath>
</defs>
</svg>
