<svg width="49" height="49" viewBox="0 0 49 49" fill="none" xmlns="http://www.w3.org/2000/svg">
<path d="M23.9355 8.1665C24.3136 8.1665 24.6916 8.1665 25.0697 8.1665C25.1745 8.18724 25.2788 8.20835 25.3835 8.22795C27.8706 8.69423 29.5716 11.0441 29.1852 13.5414C28.9156 15.2844 27.9194 16.5005 26.3034 17.2095C26.1522 17.2759 26.0989 17.3558 26.0993 17.5175C26.1038 19.5274 26.1023 21.5373 26.1027 23.5468C26.1027 23.7918 26.1087 23.7974 26.3609 23.7974C29.4226 23.7974 32.484 23.7967 35.5457 23.7986C35.7359 23.7986 35.9227 23.7771 36.1076 23.7401C37.5995 23.4416 38.6113 22.1193 38.6026 20.74C38.5958 19.6849 38.5965 18.6299 38.6075 17.5748C38.6098 17.3659 38.5402 17.2645 38.3481 17.1846C36.5995 16.4567 35.3261 14.6327 35.4887 12.5429C35.6055 11.0392 36.2928 9.85863 37.5152 8.98373C38.1576 8.52385 38.8861 8.27808 39.6639 8.1665C40.0295 8.1665 40.3947 8.1665 40.7603 8.1665C40.7845 8.17329 40.808 8.18347 40.8325 8.18686C42.1343 8.37232 43.1854 8.98674 43.9869 10.0237C44.5098 10.7 44.7968 11.4739 44.9193 12.3129C44.9193 12.6899 44.9193 13.0668 44.9193 13.4438C44.9128 13.4679 44.9041 13.4917 44.9 13.5165C44.6002 15.2882 43.6134 16.5208 41.963 17.2284C41.828 17.286 41.7929 17.3682 41.7936 17.5028C41.7978 18.3004 41.8008 19.0984 41.7936 19.896C41.7891 20.3913 41.8182 20.887 41.7622 21.3827C41.6046 22.7793 41.0443 23.9927 40.0771 25.0071C38.8241 26.3211 37.2702 26.9781 35.4546 26.9849C32.4432 26.9959 29.4317 26.9879 26.4203 26.9879C26.103 26.9879 26.103 26.9883 26.103 27.3121C26.103 29.2719 26.1068 31.2316 26.0981 33.1914C26.097 33.413 26.1647 33.5178 26.3726 33.6064C28.2891 34.4199 29.4465 36.3906 29.2079 38.405C29.0056 40.1137 28.1198 41.3553 26.5983 42.1522C26.108 42.4089 25.5771 42.5386 25.0327 42.6196C24.6799 42.6196 24.3268 42.6196 23.974 42.6196C23.8689 42.6004 23.7642 42.5808 23.6591 42.5623C21.1671 42.1243 19.4245 39.7401 19.8155 37.2602C20.0888 35.5258 21.0639 34.3038 22.6712 33.5913C22.8511 33.5114 22.9082 33.4183 22.9075 33.2268C22.9007 31.2478 22.9033 29.2689 22.9033 27.2899C22.9033 26.9883 22.9029 26.9879 22.6012 26.9879C18.6377 26.9879 14.6742 26.9879 10.7104 26.9879C10.4026 26.9879 10.4019 26.9883 10.4019 27.2876C10.4015 29.2602 10.4045 31.2331 10.3973 33.2057C10.3966 33.4108 10.4574 33.5156 10.6518 33.5996C12.5967 34.4398 13.7328 36.3355 13.5026 38.4272C13.3317 39.9791 12.5415 41.1661 11.2049 41.9845C10.6325 42.335 10.0007 42.5186 9.34172 42.6196C8.97611 42.6196 8.61088 42.6196 8.24527 42.6196C8.21502 42.6121 8.18515 42.6015 8.15453 42.597C6.86147 42.4059 5.8153 41.7945 5.01868 40.7624C4.49616 40.0862 4.20655 39.3134 4.08594 38.4732C4.08594 38.0962 4.08594 37.7193 4.08594 37.3423C4.0935 37.3118 4.10295 37.282 4.10824 37.2511C4.4092 35.4957 5.3892 34.2713 7.02216 33.5657C7.18322 33.4963 7.21233 33.401 7.21196 33.2479C7.20931 28.0114 7.20893 22.7744 7.21385 17.5378C7.21385 17.3569 7.15222 17.2743 6.98737 17.2061C5.99565 16.7945 5.227 16.1231 4.68369 15.1974C4.36459 14.6534 4.18613 14.062 4.08594 13.4438C4.08594 13.0668 4.08594 12.6899 4.08594 12.3129C4.09426 12.27 4.10371 12.2274 4.11089 12.1844C4.3419 10.7622 5.0614 9.65621 6.27355 8.8714C6.8747 8.48201 7.54165 8.27356 8.24489 8.1665C8.6105 8.1665 8.97573 8.1665 9.34134 8.1665C9.4525 8.18686 9.56327 8.20721 9.67443 8.22795C12.0723 8.67425 13.805 10.8941 13.4961 13.4068C13.2765 15.1943 12.2844 16.4552 10.6359 17.1914C10.4567 17.2713 10.3958 17.3663 10.3966 17.5571C10.4026 19.5417 10.4 21.5263 10.4004 23.511C10.4004 23.7933 10.4057 23.7978 10.6839 23.7978C14.6652 23.7978 18.6464 23.7978 22.6277 23.7978C22.9014 23.7978 22.9025 23.7971 22.9025 23.5257C22.9029 21.541 22.8995 19.5564 22.9075 17.5718C22.9082 17.3622 22.8386 17.2653 22.6473 17.1854C20.7293 16.3847 19.5705 14.4318 19.7988 12.3782C19.9769 10.775 20.7894 9.57478 22.1743 8.75492C22.7177 8.43338 23.3162 8.2664 23.9355 8.1665Z" fill="#959595"/>
</svg>
