<svg width="49" height="49" viewBox="0 0 49 49" fill="none" xmlns="http://www.w3.org/2000/svg">
<path d="M25.6429 42.5075C25.3097 42.7468 24.9098 42.8755 24.4996 42.8755C24.0893 42.8755 23.6894 42.7468 23.3562 42.5075C13.497 35.4801 3.03347 21.0251 13.6113 10.5799C16.5153 7.72332 20.4261 6.12321 24.4996 6.125C28.5829 6.125 32.5008 7.72771 35.3878 10.5779C45.9656 21.023 35.5021 35.476 25.6429 42.5075Z" stroke="#ACACAC" stroke-width="1.5" stroke-linecap="round" stroke-linejoin="round"/>
<path d="M24.4993 24.5002C25.5823 24.5002 26.6209 24.07 27.3867 23.3042C28.1525 22.5384 28.5827 21.4998 28.5827 20.4168C28.5827 19.3339 28.1525 18.2953 27.3867 17.5295C26.6209 16.7637 25.5823 16.3335 24.4993 16.3335C23.4164 16.3335 22.3778 16.7637 21.612 17.5295C20.8462 18.2953 20.416 19.3339 20.416 20.4168C20.416 21.4998 20.8462 22.5384 21.612 23.3042C22.3778 24.07 23.4164 24.5002 24.4993 24.5002Z" stroke="#ACACAC" stroke-width="1.5" stroke-linecap="round" stroke-linejoin="round"/>
</svg>
