<svg width="50" height="50" viewBox="0 0 50 50" fill="none" xmlns="http://www.w3.org/2000/svg">
<path d="M31.9364 6.42725L22.4406 12.5224L23.4031 13.0494L31.8514 7.62656L46.181 15.7434L37.9617 21.019L38.3621 21.2382V21.9069L44.7999 17.7745L46.1511 18.5399L38.362 23.5395V24.6843L44.6738 20.6328L46.1511 21.4697L38.362 26.4692V27.6141L44.6738 23.5626L46.1511 24.3995L38.362 29.399V30.5438L48.1309 24.2733L45.7062 22.9001L48.1308 21.3438L45.7062 19.9703L48.1307 18.414L45.8321 17.1119L48.1604 15.6173L31.9364 6.42725ZM34.9703 10.7964C32.9158 11.8272 30.1793 12.0017 28.2525 11.2244L24.4859 13.6421L36.8788 20.4263L40.4513 18.1333C39.044 17.0224 39.1612 15.3647 40.7386 14.064L34.9703 10.7964ZM22.2174 14.4042L15.3143 18.9056L28.5574 26.5292L28.6873 26.4462C28.9314 26.289 29.2762 26.0663 29.6875 25.8004C30.5098 25.2688 31.5979 24.5641 32.683 23.8609C34.2457 22.8482 35.051 22.3258 35.7998 21.84L22.2174 14.4042ZM33.4935 14.5185H33.4937C33.8061 14.5204 34.0924 14.5873 34.3062 14.7084C34.4307 14.7789 34.5272 14.8658 34.5903 14.9642C34.6534 15.0626 34.6818 15.1706 34.6739 15.282C34.666 15.3934 34.622 15.506 34.5443 15.6134C34.4667 15.7207 34.3569 15.8208 34.2213 15.9078C34.0857 15.9948 33.927 16.0671 33.7541 16.1205C33.5812 16.174 33.3976 16.2075 33.2138 16.2192C33.0299 16.2309 32.8495 16.2205 32.6826 16.1887C32.5158 16.1569 32.3659 16.1043 32.2415 16.0338C31.9903 15.8915 31.8581 15.6852 31.874 15.4603C31.8899 15.2354 32.0527 15.0103 32.3265 14.8346C32.4819 14.7347 32.6676 14.6545 32.8697 14.5997C33.0718 14.545 33.285 14.5172 33.4935 14.5185ZM12.1631 19.1195L1.86963 25.7265L4.16816 27.0285L1.83984 28.5231L4.26445 29.8965L1.83984 31.4529L4.26445 32.8263L1.83984 34.3827L18.064 43.5728L27.8593 37.2851V36.1405L18.149 42.3733L3.81953 34.2564L5.21162 33.3629L18.064 40.6429L27.8593 34.3554V33.2108L18.149 39.4436L3.81953 31.3268L5.21162 30.4332L18.064 37.7132L27.8593 31.4257V30.2812L18.149 36.514L3.81953 28.3971L5.11543 27.565L18.0939 34.9166L27.8593 28.6482V28.1551L27.3241 27.8471L18.1786 33.7172L3.84951 25.6004L13.1034 19.6605L12.163 19.1192L12.1631 19.1195ZM14.1611 20.2699L9.5791 23.2108C10.9863 24.3216 10.8691 25.9792 9.2918 27.2802L15.0602 30.5478C17.1146 29.5168 19.8509 29.3425 21.7776 30.1196L26.2664 27.2384L14.1609 20.2698L14.1611 20.2699ZM36.6042 23.4135C35.8187 23.9229 35.1259 24.3727 33.6391 25.3361C32.6404 25.9835 31.6413 26.6305 30.642 27.2769C30.2302 27.543 29.8847 27.7661 29.6383 27.9245C29.6295 27.9304 29.6259 27.9323 29.6173 27.9379V36.3289L36.6043 31.6328L36.6042 23.4135ZM16.9763 25.1205C17.2886 25.1225 17.575 25.1895 17.7888 25.3106C18.04 25.453 18.1722 25.6593 18.1563 25.8842C18.1404 26.1091 17.9776 26.3341 17.7038 26.5099C17.43 26.6856 17.0677 26.7975 16.6965 26.8212C16.3253 26.8448 15.9756 26.7781 15.7243 26.6358C15.4731 26.4935 15.3409 26.2872 15.3568 26.0623C15.3727 25.8374 15.5355 25.6124 15.8093 25.4366C15.9648 25.3368 16.1505 25.2566 16.3525 25.2018C16.5546 25.1471 16.7678 25.1193 16.9763 25.1206V25.1205Z" fill="#ACACAC"/>
</svg>
