<svg width="32" height="33" viewBox="0 0 32 33" fill="none" xmlns="http://www.w3.org/2000/svg">
<path d="M28.7257 15.2265C29.131 15.7945 29.3337 16.0798 29.3337 16.4998C29.3337 16.9212 29.131 17.2052 28.7257 17.7732C26.9043 20.3278 22.2523 25.8332 16.0003 25.8332C9.74699 25.8332 5.09633 20.3265 3.27499 17.7732C2.86966 17.2052 2.66699 16.9198 2.66699 16.4998C2.66699 16.0785 2.86966 15.7945 3.27499 15.2265C5.09633 12.6718 9.74833 7.1665 16.0003 7.1665C22.2537 7.1665 26.9043 12.6732 28.7257 15.2265Z" stroke="#E9233A" stroke-width="1.5" stroke-linecap="round" stroke-linejoin="round"/>
<path d="M20 16.5C20 15.4391 19.5786 14.4217 18.8284 13.6716C18.0783 12.9214 17.0609 12.5 16 12.5C14.9391 12.5 13.9217 12.9214 13.1716 13.6716C12.4214 14.4217 12 15.4391 12 16.5C12 17.5609 12.4214 18.5783 13.1716 19.3284C13.9217 20.0786 14.9391 20.5 16 20.5C17.0609 20.5 18.0783 20.0786 18.8284 19.3284C19.5786 18.5783 20 17.5609 20 16.5Z" stroke="#E9233A" stroke-width="1.5" stroke-linecap="round" stroke-linejoin="round"/>
</svg>
