<svg width="51" height="51" viewBox="0 0 51 51" fill="none" xmlns="http://www.w3.org/2000/svg">
<path fill-rule="evenodd" clip-rule="evenodd" d="M38.959 25.1844C38.959 33.2386 32.5932 39.7677 24.7402 39.7677C24.7402 32.8636 26.7715 24.1427 36.9277 23.1011H38.8148C38.9111 23.7911 38.9592 24.4873 38.959 25.1844Z" stroke="white" stroke-width="3.2" stroke-linecap="round" stroke-linejoin="round"/>
<path d="M12.7127 21.5468C11.8543 21.4589 11.087 22.0835 10.999 22.9418C10.9109 23.8004 11.5355 24.5677 12.3939 24.6556L12.7127 21.5468ZM24.7407 39.7679V41.3304C25.1551 41.3306 25.5526 41.1658 25.8455 40.8729C26.1386 40.5797 26.3032 40.1824 26.3032 39.7679H24.7407ZM37.268 23.3189C37.3884 24.1735 38.1786 24.7687 39.033 24.6485C39.8876 24.5283 40.4828 23.7381 40.3626 22.8835L37.268 23.3189ZM12.5533 24.6637C13.4163 24.6637 14.1158 23.9641 14.1158 23.1012C14.1158 22.2383 13.4163 21.5387 12.5533 21.5387V24.6637ZM10.6663 21.5387C9.80334 21.5387 9.10378 22.2383 9.10378 23.1012C9.10378 23.9641 9.80334 24.6637 10.6663 24.6637V21.5387ZM12.5533 21.5387C11.6904 21.5387 10.9908 22.2383 10.9908 23.1012C10.9908 23.9641 11.6904 24.6637 12.5533 24.6637V21.5387ZM36.9282 24.6637C37.7913 24.6637 38.4907 23.9641 38.4907 23.1012C38.4907 22.2383 37.7913 21.5387 36.9282 21.5387V24.6637ZM12.3939 24.6556C16.9573 25.1237 19.5594 27.2624 21.0924 29.9997C22.6799 32.8341 23.1782 36.4281 23.1782 39.7679H26.3032C26.3032 36.2035 25.7861 31.9849 23.8188 28.4727C21.7972 24.8629 18.3056 22.1206 12.7127 21.5468L12.3939 24.6556ZM24.7409 38.2054C18.0216 38.2047 12.4254 32.7829 12.1007 25.8075L8.97905 25.9527C9.37813 34.5258 16.283 41.3295 24.7407 41.3304L24.7409 38.2054ZM12.1007 25.8075C11.7759 18.8296 16.8466 12.8805 23.539 12.2228L23.2334 9.11275C14.8179 9.93979 8.58009 17.3819 8.97905 25.9527L12.1007 25.8075ZM23.539 12.2228C30.2259 11.5656 36.2959 16.4112 37.268 23.3189L40.3626 22.8835C39.1665 14.3847 31.6545 8.28516 23.2334 9.11275L23.539 12.2228ZM12.5533 21.5387H10.6663V24.6637H12.5533V21.5387ZM12.5533 24.6637H36.9282V21.5387H12.5533V24.6637Z" fill="white"/>
</svg>
