<svg width="51" height="51" viewBox="0 0 51 51" fill="none" xmlns="http://www.w3.org/2000/svg">
<path fill-rule="evenodd" clip-rule="evenodd" d="M38.6934 25.1844C38.6934 33.2386 32.3275 39.7677 24.4746 39.7677C24.4746 32.8636 26.5059 24.1427 36.6621 23.1011H38.5492C38.6454 23.7911 38.6936 24.4873 38.6934 25.1844Z" stroke="#B5B5B5" stroke-width="3.2" stroke-linecap="round" stroke-linejoin="round"/>
<path d="M12.4471 21.5468C11.5887 21.4589 10.8214 22.0835 10.7333 22.9418C10.6453 23.8004 11.2698 24.5677 12.1283 24.6556L12.4471 21.5468ZM24.4751 39.7679V41.3304C24.8895 41.3306 25.287 41.1658 25.5799 40.8729C25.873 40.5797 26.0376 40.1824 26.0376 39.7679H24.4751ZM37.0024 23.3189C37.1228 24.1735 37.913 24.7687 38.7674 24.6485C39.622 24.5283 40.2172 23.7381 40.097 22.8835L37.0024 23.3189ZM12.2877 24.6637C13.1506 24.6637 13.8502 23.9641 13.8502 23.1012C13.8502 22.2383 13.1506 21.5387 12.2877 21.5387V24.6637ZM10.4007 21.5387C9.53771 21.5387 8.83815 22.2383 8.83815 23.1012C8.83815 23.9641 9.53771 24.6637 10.4007 24.6637V21.5387ZM12.2877 21.5387C11.4248 21.5387 10.7252 22.2383 10.7252 23.1012C10.7252 23.9641 11.4248 24.6637 12.2877 24.6637V21.5387ZM36.6626 24.6637C37.5257 24.6637 38.2251 23.9641 38.2251 23.1012C38.2251 22.2383 37.5257 21.5387 36.6626 21.5387V24.6637ZM12.1283 24.6556C16.6917 25.1237 19.2938 27.2624 20.8268 29.9997C22.4143 32.8341 22.9126 36.4281 22.9126 39.7679H26.0376C26.0376 36.2035 25.5205 31.9849 23.5532 28.4727C21.5315 24.8629 18.0399 22.1206 12.4471 21.5468L12.1283 24.6556ZM24.4753 38.2054C17.7559 38.2047 12.1598 32.7829 11.835 25.8075L8.71342 25.9527C9.11251 34.5258 16.0173 41.3295 24.4751 41.3304L24.4753 38.2054ZM11.835 25.8075C11.5102 18.8296 16.581 12.8805 23.2734 12.2228L22.9678 9.11275C14.5523 9.93979 8.31446 17.3819 8.71342 25.9527L11.835 25.8075ZM23.2734 12.2228C29.9603 11.5656 36.0303 16.4112 37.0024 23.3189L40.097 22.8835C38.9009 14.3847 31.3888 8.28516 22.9678 9.11275L23.2734 12.2228ZM12.2877 21.5387H10.4007V24.6637H12.2877V21.5387ZM12.2877 24.6637H36.6626V21.5387H12.2877V24.6637Z" fill="#B5B5B5"/>
</svg>
