<svg width="24" height="24" viewBox="0 0 24 24" fill="none" xmlns="http://www.w3.org/2000/svg">
<path d="M10.1703 18.9998C10.3197 19.0003 10.4673 18.9673 10.6023 18.9033C10.7373 18.8393 10.8562 18.7458 10.9503 18.6298L15.7803 12.6298C15.9274 12.4509 16.0078 12.2264 16.0078 11.9948C16.0078 11.7632 15.9274 11.5387 15.7803 11.3598L10.7803 5.35979C10.6106 5.15557 10.3667 5.02715 10.1022 5.00277C9.83782 4.97839 9.57454 5.06005 9.37032 5.22979C9.16611 5.39953 9.03768 5.64344 9.0133 5.90786C8.98892 6.17229 9.07059 6.43557 9.24032 6.63979L13.7103 11.9998L9.39033 17.3598C9.26804 17.5066 9.19036 17.6853 9.16649 17.8749C9.14261 18.0644 9.17352 18.2568 9.25558 18.4294C9.33763 18.6019 9.46739 18.7473 9.6295 18.8484C9.79162 18.9495 9.97929 19.002 10.1703 18.9998Z" fill="#333333"/>
</svg>
