<svg width="83" height="83" viewBox="0 0 83 83" fill="none" xmlns="http://www.w3.org/2000/svg">
<rect y="0.00012207" width="83" height="83" rx="20" fill="#FFC21B"/>
<path d="M21.0699 31.0159C21.0839 31.0945 21.0952 31.1731 21.0999 31.2524C21.1592 32.2696 21.9282 40.3856 31.5962 50.2674C31.5962 50.2674 39.9477 58.7783 48.7374 60.5677C48.7754 60.5756 48.8128 60.5841 48.8508 60.5946C49.383 60.7393 53.9075 61.883 56.2398 59.544L59.5626 56.2808C59.5926 56.2514 59.6239 56.2225 59.6559 56.195C59.9874 55.9101 62.295 53.7781 59.9867 51.5112C57.6504 49.2168 54.7052 46.4193 54.3717 46.1023C54.3557 46.0872 54.3404 46.0722 54.3251 46.0565C54.1443 45.8717 52.4276 44.2107 50.4168 45.7283C50.3587 45.7722 50.304 45.8213 50.252 45.8724L46.9987 49.076C46.2697 49.767 45.1119 49.7578 44.3936 49.0556L33.2789 38.1822C32.5326 37.4519 32.552 36.2591 33.3216 35.5524L35.9227 33.1656C35.9227 33.1656 38.7726 30.5745 35.712 27.7757L31.1687 23.3139C31.1407 23.2864 31.114 23.2583 31.0874 23.2288C30.7939 22.9039 28.6163 20.6796 26.0613 23.1554C25.9832 23.2307 25.8985 23.2989 25.8085 23.3591C24.9415 23.9434 20.3849 27.2078 21.0699 31.0159Z" fill="white"/>
<path d="M51.6928 38.9646C52.3964 38.9643 52.9758 38.3907 52.8762 37.6941C52.7531 36.834 52.5058 35.9939 52.1402 35.2008C51.5962 34.0208 50.8032 32.9726 49.8156 32.1282C48.828 31.2838 47.6693 30.6632 46.4191 30.3092C45.5788 30.0712 44.7105 29.9574 43.8417 29.9695C43.1381 29.9793 42.6615 30.6408 42.7705 31.336C42.8795 32.0312 43.5348 32.4931 44.2378 32.5226C44.7397 32.5437 45.2387 32.6234 45.7248 32.761C46.621 33.0148 47.4516 33.4597 48.1596 34.065C48.8676 34.6703 49.4361 35.4217 49.826 36.2676C50.0375 36.7264 50.1938 37.207 50.2926 37.6995C50.431 38.3894 50.9891 38.965 51.6928 38.9646Z" fill="white"/>
<path d="M56.9542 39.1091C57.8018 39.1755 58.552 38.5406 58.5203 37.691C58.4627 36.1457 58.1367 34.6182 57.5531 33.1778C56.7762 31.2604 55.5642 29.55 54.0128 28.1815C52.4613 26.8131 50.6129 25.8242 48.6136 25.2928C47.1116 24.8937 45.5553 24.761 44.0149 24.8968C43.168 24.9714 42.6318 25.795 42.8034 26.6277C42.9751 27.4604 43.7906 27.9839 44.6396 27.9386C45.7082 27.8816 46.7824 27.9919 47.8228 28.2684C49.3608 28.6771 50.7827 29.4378 51.9762 30.4905C53.1696 31.5432 54.102 32.859 54.6996 34.3339C55.1038 35.3316 55.3474 36.3836 55.4242 37.4511C55.4853 38.2991 56.1066 39.0428 56.9542 39.1091Z" fill="white"/>
</svg>
