<svg width="40" height="40" viewBox="0 0 40 40" fill="none" xmlns="http://www.w3.org/2000/svg">
<path fill-rule="evenodd" clip-rule="evenodd" d="M7.14286 25.7143C7.71118 25.7143 8.25622 25.94 8.65809 26.3419C9.05995 26.7438 9.28571 27.2888 9.28571 27.8571C9.28571 28.4255 9.05995 28.9705 8.65809 29.3724C8.25622 29.7742 7.71118 30 7.14286 30C6.57454 30 6.02949 29.7742 5.62763 29.3724C5.22576 28.9705 5 28.4255 5 27.8571C5 27.2888 5.22576 26.7438 5.62763 26.3419C6.02949 25.94 6.57454 25.7143 7.14286 25.7143ZM32.8557 26.4286C33.6457 26.4286 34.2857 27.0628 34.2857 27.8571C34.2857 28.6464 33.65 29.2857 32.8557 29.2857H12.8586C12.6707 29.2863 12.4847 29.2497 12.311 29.1781C12.1373 29.1066 11.9795 29.0014 11.8467 28.8686C11.7138 28.7359 11.6084 28.5782 11.5367 28.4046C11.4649 28.231 11.4282 28.045 11.4286 27.8571C11.4286 27.0678 12.0643 26.4286 12.8586 26.4286H32.8557ZM7.14286 18.5714C7.71118 18.5714 8.25622 18.7972 8.65809 19.199C9.05995 19.6009 9.28571 20.146 9.28571 20.7143C9.28571 21.2826 9.05995 21.8276 8.65809 22.2295C8.25622 22.6314 7.71118 22.8571 7.14286 22.8571C6.57454 22.8571 6.02949 22.6314 5.62763 22.2295C5.22576 21.8276 5 21.2826 5 20.7143C5 20.146 5.22576 19.6009 5.62763 19.199C6.02949 18.7972 6.57454 18.5714 7.14286 18.5714ZM32.8557 19.2857C33.6457 19.2857 34.2857 19.92 34.2857 20.7143C34.2857 21.5036 33.65 22.1428 32.8557 22.1428H12.8586C12.6707 22.1434 12.4847 22.1069 12.311 22.0353C12.1373 21.9637 11.9795 21.8585 11.8467 21.7258C11.7138 21.593 11.6084 21.4353 11.5367 21.2617C11.4649 21.0882 11.4282 20.9021 11.4286 20.7143C11.4286 19.925 12.0643 19.2857 12.8586 19.2857H32.8557ZM7.14286 11.4286C7.71118 11.4286 8.25622 11.6543 8.65809 12.0562C9.05995 12.4581 9.28571 13.0031 9.28571 13.5714C9.28571 14.1397 9.05995 14.6848 8.65809 15.0866C8.25622 15.4885 7.71118 15.7143 7.14286 15.7143C6.57454 15.7143 6.02949 15.4885 5.62763 15.0866C5.22576 14.6848 5 14.1397 5 13.5714C5 13.0031 5.22576 12.4581 5.62763 12.0562C6.02949 11.6543 6.57454 11.4286 7.14286 11.4286ZM32.8557 12.1428C33.6457 12.1428 34.2857 12.7771 34.2857 13.5714C34.2857 14.3607 33.65 15 32.8557 15H12.8586C12.6707 15.0006 12.4847 14.964 12.311 14.8924C12.1373 14.8208 11.9795 14.7157 11.8467 14.5829C11.7138 14.4502 11.6084 14.2925 11.5367 14.1189C11.4649 13.9453 11.4282 13.7592 11.4286 13.5714C11.4286 12.7821 12.0643 12.1428 12.8586 12.1428H32.8557Z" fill="black"/>
</svg>
