<svg width="57" height="56" viewBox="0 0 57 56" fill="none" xmlns="http://www.w3.org/2000/svg">
<circle cx="28.582" cy="28" r="28" fill="#B5B5B5"/>
<path d="M28.99 18C23.47 18 19 22.48 19 28C19 33.52 23.47 38 28.99 38C34.52 38 39 33.52 39 28C39 22.48 34.52 18 28.99 18ZM35.92 24H32.97C32.6565 22.7616 32.1931 21.5661 31.59 20.44C33.4141 21.068 34.9512 22.3317 35.92 24ZM29 20.04C29.83 21.24 30.48 22.57 30.91 24H27.09C27.52 22.57 28.17 21.24 29 20.04ZM21.26 30C21.1 29.36 21 28.69 21 28C21 27.31 21.1 26.64 21.26 26H24.64C24.56 26.66 24.5 27.32 24.5 28C24.5 28.68 24.56 29.34 24.64 30H21.26ZM22.08 32H25.03C25.35 33.25 25.81 34.45 26.41 35.56C24.5845 34.9344 23.0467 33.67 22.08 32ZM25.03 24H22.08C23.0467 22.33 24.5845 21.0656 26.41 20.44C25.8069 21.5661 25.3435 22.7616 25.03 24ZM29 35.96C28.17 34.76 27.52 33.43 27.09 32H30.91C30.48 33.43 29.83 34.76 29 35.96ZM31.34 30H26.66C26.57 29.34 26.5 28.68 26.5 28C26.5 27.32 26.57 26.65 26.66 26H31.34C31.43 26.65 31.5 27.32 31.5 28C31.5 28.68 31.43 29.34 31.34 30ZM31.59 35.56C32.19 34.45 32.65 33.25 32.97 32H35.92C34.9512 33.6683 33.4141 34.932 31.59 35.56ZM33.36 30C33.44 29.34 33.5 28.68 33.5 28C33.5 27.32 33.44 26.66 33.36 26H36.74C36.9 26.64 37 27.31 37 28C37 28.69 36.9 29.36 36.74 30H33.36Z" fill="white"/>
</svg>
