<svg width="94" height="94" viewBox="0 0 94 94" fill="none" xmlns="http://www.w3.org/2000/svg">
<path d="M35.6114 23.9094C35.6114 26.9926 36.8361 29.9494 39.0162 32.1295C41.1963 34.3097 44.1532 35.5344 47.2364 35.5344C50.3195 35.5344 53.2764 34.3097 55.4565 32.1295C57.6366 29.9494 58.8614 26.9926 58.8614 23.9094C58.8614 20.8263 57.6366 17.8694 55.4565 15.6893C53.2764 13.5092 50.3195 12.2844 47.2364 12.2844C44.1532 12.2844 41.1963 13.5092 39.0162 15.6893C36.8361 17.8694 35.6114 20.8263 35.6114 23.9094ZM17.9336 54.5297C16.5823 55.2775 15.3935 56.2871 14.4367 57.4995C13.48 58.712 12.7744 60.1029 12.3612 61.591C11.948 63.0792 11.8355 64.6348 12.0303 66.1669C12.2251 67.6991 12.7232 69.177 13.4955 70.5145C14.2679 71.8519 15.299 73.0221 16.5287 73.9566C17.7583 74.8911 19.1619 75.5712 20.6573 75.9572C22.1528 76.3431 23.7102 76.4272 25.2385 76.2046C26.7668 75.9819 28.2354 75.4569 29.5586 74.6603C32.2069 73.1078 34.1335 70.5708 34.9182 67.603C35.7028 64.6352 35.2817 61.4775 33.7468 58.819C32.2119 56.1605 29.6877 54.217 26.7252 53.4127C23.7626 52.6084 20.6022 53.0085 17.9336 54.5258V54.5297ZM76.5391 54.5297C77.8881 55.2781 79.0746 56.2876 80.0294 57.4994C80.9842 58.7111 81.6881 60.1009 82.1002 61.5875C82.5123 63.0742 82.6242 64.628 82.4295 66.1583C82.2348 67.6887 81.7373 69.165 80.9661 70.5011C80.1949 71.8372 79.1654 73.0064 77.9376 73.9405C76.7098 74.8746 75.3084 75.5548 73.8149 75.9416C72.3215 76.3284 70.766 76.4139 69.2392 76.1933C67.7123 75.9726 66.2447 75.4502 64.9219 74.6564C62.3083 73.0882 60.4155 70.5559 59.6514 67.6053C58.8872 64.6547 59.3128 61.522 60.8365 58.8822C62.3602 56.2424 64.86 54.3069 67.7972 53.4928C70.7344 52.6786 73.8739 53.051 76.5391 54.5297Z" stroke="white" stroke-width="2"/>
<path fill-rule="evenodd" clip-rule="evenodd" d="M35.8822 26.401C35.5506 24.8904 35.5237 23.3289 35.8032 21.8078C36.0827 20.2868 36.6628 18.8368 37.5097 17.5427C28.8693 20.0521 21.5331 25.8037 17.0343 33.5955C12.5354 41.3874 11.2219 50.6164 13.3684 59.354C14.0661 57.974 15.032 56.747 16.2097 55.745C17.3875 54.7429 18.7533 53.9859 20.2272 53.5182C19.7137 47.9345 20.9433 42.3288 23.7468 37.4727C26.5503 32.6165 30.7899 28.7485 35.8822 26.401ZM58.5897 26.401C63.6819 28.7485 67.9215 32.6165 70.725 37.4727C73.5285 42.3288 74.7581 47.9345 74.2447 53.5182C75.7189 53.9863 77.0849 54.744 78.2627 55.7467C79.4404 56.7494 80.4062 57.9771 81.1034 59.3578C83.2499 50.6203 81.9365 41.3912 77.4376 33.5994C72.9387 25.8076 65.6025 20.056 56.9622 17.5466C57.8085 18.8401 58.3884 20.2895 58.6678 21.8098C58.9473 23.3302 58.9207 24.891 58.5897 26.401ZM71.3772 76.2025C69.833 76.2891 68.287 76.0668 66.8298 75.5485C65.3726 75.0301 64.0335 74.2262 62.8909 73.1838C58.312 76.4199 52.8429 78.1574 47.2359 78.1574C41.629 78.1574 36.1598 76.4199 31.5809 73.1838C30.4386 74.2269 29.0997 75.0315 27.6425 75.5505C26.1853 76.0695 24.6391 76.2925 23.0947 76.2063C29.5883 82.4349 38.238 85.9126 47.2359 85.9126C56.2338 85.9126 64.8835 82.431 71.3772 76.2025Z" fill="white"/>
</svg>
